<mxfile host="www.draw.io" modified="2019-10-28T00:29:16.824Z" agent="Mozilla/5.0 (Macintosh; Intel Mac OS X 10_14_6) AppleWebKit/605.1.15 (KHTML, like Gecko) Version/13.0.2 Safari/605.1.15" etag="PwuIpkdaxBjWVEfW_91X" version="12.1.7" type="github" pages="1">
  <diagram id="GpWHCvYwklkqD8Dyqe2I" name="Page-1">
    <mxGraphModel dx="1553" dy="948" grid="0" gridSize="10" guides="1" tooltips="1" connect="1" arrows="1" fold="1" page="1" pageScale="1" pageWidth="3300" pageHeight="4681" math="0" shadow="0">
      <root>
        <mxCell id="0"/>
        <mxCell id="1" parent="0"/>
        <mxCell id="OX4fmcxfJEsmP53yHdPk-448" value="" style="rounded=0;whiteSpace=wrap;html=1;labelBackgroundColor=#ffffff;strokeColor=#b46504;fillColor=none;fontSize=15;align=center;dashed=1;strokeWidth=3;" parent="1" vertex="1">
          <mxGeometry x="1236" y="54" width="684" height="1446" as="geometry"/>
        </mxCell>
        <mxCell id="OX4fmcxfJEsmP53yHdPk-125" value="负载均衡器" style="rounded=0;whiteSpace=wrap;html=1;labelBackgroundColor=none;strokeColor=#6c8ebf;fillColor=#dae8fc;fontSize=21;align=center;spacingLeft=5;spacingRight=5;" parent="1" vertex="1">
          <mxGeometry x="654" y="431" width="43" height="283" as="geometry"/>
        </mxCell>
        <mxCell id="OX4fmcxfJEsmP53yHdPk-127" style="edgeStyle=orthogonalEdgeStyle;rounded=0;orthogonalLoop=1;jettySize=auto;html=1;entryX=0;entryY=0.5;entryDx=0;entryDy=0;strokeColor=#6881B3;fontSize=19;" parent="1" source="OX4fmcxfJEsmP53yHdPk-129" target="OX4fmcxfJEsmP53yHdPk-132" edge="1">
          <mxGeometry relative="1" as="geometry">
            <Array as="points">
              <mxPoint x="363" y="550"/>
              <mxPoint x="363" y="550"/>
            </Array>
          </mxGeometry>
        </mxCell>
        <mxCell id="OX4fmcxfJEsmP53yHdPk-252" value="HTTP" style="text;html=1;resizable=0;points=[];align=center;verticalAlign=middle;labelBackgroundColor=#ffffff;fontSize=12;" parent="OX4fmcxfJEsmP53yHdPk-127" vertex="1" connectable="0">
          <mxGeometry x="-0.0811" y="-2" relative="1" as="geometry">
            <mxPoint as="offset"/>
          </mxGeometry>
        </mxCell>
        <mxCell id="8DgzsWet9Qr9mS-sWMTl-51" style="edgeStyle=orthogonalEdgeStyle;rounded=0;jumpStyle=arc;jumpSize=12;orthogonalLoop=1;jettySize=auto;html=1;exitX=1;exitY=0.5;exitDx=0;exitDy=0;entryX=0.011;entryY=0.082;entryDx=0;entryDy=0;entryPerimeter=0;startArrow=none;startFill=0;endArrow=classic;endFill=1;strokeColor=#00CCCC;fontSize=12;" parent="1" source="OX4fmcxfJEsmP53yHdPk-129" target="OX4fmcxfJEsmP53yHdPk-132" edge="1">
          <mxGeometry relative="1" as="geometry">
            <Array as="points">
              <mxPoint x="353" y="465"/>
            </Array>
          </mxGeometry>
        </mxCell>
        <mxCell id="OX4fmcxfJEsmP53yHdPk-129" value="负载均衡器" style="rounded=0;whiteSpace=wrap;html=1;labelBackgroundColor=none;strokeColor=#6c8ebf;fillColor=#dae8fc;fontSize=19;align=center;spacingLeft=5;spacingRight=5;" parent="1" vertex="1">
          <mxGeometry x="310" y="297" width="43" height="373" as="geometry"/>
        </mxCell>
        <mxCell id="OX4fmcxfJEsmP53yHdPk-130" value="" style="endArrow=classic;html=1;strokeColor=#6881B3;fontSize=19;entryX=0;entryY=0.677;entryDx=0;entryDy=0;entryPerimeter=0;" parent="1" target="OX4fmcxfJEsmP53yHdPk-129" edge="1">
          <mxGeometry width="50" height="50" relative="1" as="geometry">
            <mxPoint x="255" y="550" as="sourcePoint"/>
            <mxPoint x="238.5" y="506" as="targetPoint"/>
          </mxGeometry>
        </mxCell>
        <mxCell id="OX4fmcxfJEsmP53yHdPk-253" style="edgeStyle=orthogonalEdgeStyle;rounded=0;orthogonalLoop=1;jettySize=auto;html=1;exitX=1;exitY=0.5;exitDx=0;exitDy=0;fontSize=12;strokeColor=#0066CC;" parent="1" source="OX4fmcxfJEsmP53yHdPk-132" edge="1">
          <mxGeometry relative="1" as="geometry">
            <mxPoint x="655" y="548" as="targetPoint"/>
          </mxGeometry>
        </mxCell>
        <mxCell id="OX4fmcxfJEsmP53yHdPk-254" value="HTTP" style="text;html=1;resizable=0;points=[];align=center;verticalAlign=middle;labelBackgroundColor=#ffffff;fontSize=12;" parent="OX4fmcxfJEsmP53yHdPk-253" vertex="1" connectable="0">
          <mxGeometry x="-0.1489" relative="1" as="geometry">
            <mxPoint as="offset"/>
          </mxGeometry>
        </mxCell>
        <mxCell id="8DgzsWet9Qr9mS-sWMTl-54" style="edgeStyle=orthogonalEdgeStyle;rounded=0;jumpStyle=arc;jumpSize=12;orthogonalLoop=1;jettySize=auto;html=1;exitX=0.5;exitY=0;exitDx=0;exitDy=0;entryX=0;entryY=0.25;entryDx=0;entryDy=0;startArrow=none;startFill=0;endArrow=classic;endFill=1;strokeColor=#00CCCC;fontSize=12;" parent="1" source="OX4fmcxfJEsmP53yHdPk-132" target="OX4fmcxfJEsmP53yHdPk-302" edge="1">
          <mxGeometry relative="1" as="geometry">
            <Array as="points">
              <mxPoint x="502" y="404"/>
              <mxPoint x="1165" y="404"/>
              <mxPoint x="1165" y="162"/>
            </Array>
          </mxGeometry>
        </mxCell>
        <mxCell id="8DgzsWet9Qr9mS-sWMTl-55" value="GRPC" style="text;html=1;resizable=0;points=[];align=center;verticalAlign=middle;labelBackgroundColor=#ffffff;fontSize=12;" parent="8DgzsWet9Qr9mS-sWMTl-54" vertex="1" connectable="0">
          <mxGeometry x="-0.4304" y="-92" relative="1" as="geometry">
            <mxPoint x="1" as="offset"/>
          </mxGeometry>
        </mxCell>
        <mxCell id="8DgzsWet9Qr9mS-sWMTl-58" style="edgeStyle=orthogonalEdgeStyle;rounded=0;jumpStyle=arc;jumpSize=12;orthogonalLoop=1;jettySize=auto;html=1;exitX=0;exitY=0.75;exitDx=0;exitDy=0;entryX=1.047;entryY=0.811;entryDx=0;entryDy=0;entryPerimeter=0;startArrow=classic;startFill=1;endArrow=none;endFill=0;strokeColor=#FF00FF;fontSize=12;" parent="1" source="OX4fmcxfJEsmP53yHdPk-132" target="OX4fmcxfJEsmP53yHdPk-129" edge="1">
          <mxGeometry relative="1" as="geometry"/>
        </mxCell>
        <mxCell id="8DgzsWet9Qr9mS-sWMTl-59" style="edgeStyle=orthogonalEdgeStyle;rounded=0;jumpStyle=arc;jumpSize=12;orthogonalLoop=1;jettySize=auto;html=1;exitX=0.25;exitY=0;exitDx=0;exitDy=0;entryX=0.5;entryY=0;entryDx=0;entryDy=0;startArrow=none;startFill=0;endArrow=classic;endFill=1;strokeColor=#FF00FF;fontSize=12;" parent="1" source="OX4fmcxfJEsmP53yHdPk-132" target="8DgzsWet9Qr9mS-sWMTl-29" edge="1">
          <mxGeometry relative="1" as="geometry"/>
        </mxCell>
        <mxCell id="3IjrNCw-eFAvfJicf0EX-17" value="GRPC/HTTP" style="text;html=1;resizable=0;points=[];align=center;verticalAlign=middle;labelBackgroundColor=#ffffff;fontSize=15;" parent="8DgzsWet9Qr9mS-sWMTl-59" vertex="1" connectable="0">
          <mxGeometry x="0.3362" y="-2" relative="1" as="geometry">
            <mxPoint y="-1" as="offset"/>
          </mxGeometry>
        </mxCell>
        <mxCell id="OX4fmcxfJEsmP53yHdPk-132" value="" style="rounded=0;whiteSpace=wrap;html=1;labelBackgroundColor=none;strokeColor=#82b366;fillColor=#FFFFFF;fontSize=19;align=center;dashed=1;" parent="1" vertex="1">
          <mxGeometry x="431" y="448" width="142" height="202" as="geometry"/>
        </mxCell>
        <mxCell id="OX4fmcxfJEsmP53yHdPk-345" style="edgeStyle=orthogonalEdgeStyle;rounded=0;orthogonalLoop=1;jettySize=auto;html=1;exitX=1;exitY=0.25;exitDx=0;exitDy=0;entryX=-0.001;entryY=0.463;entryDx=0;entryDy=0;entryPerimeter=0;strokeColor=#0066CC;fontSize=12;" parent="1" source="OX4fmcxfJEsmP53yHdPk-151" target="OX4fmcxfJEsmP53yHdPk-302" edge="1">
          <mxGeometry relative="1" as="geometry">
            <Array as="points">
              <mxPoint x="1200" y="520"/>
              <mxPoint x="1200" y="217"/>
            </Array>
          </mxGeometry>
        </mxCell>
        <mxCell id="OX4fmcxfJEsmP53yHdPk-346" value="GRPC" style="text;html=1;resizable=0;points=[];align=center;verticalAlign=middle;labelBackgroundColor=#ffffff;fontSize=12;" parent="OX4fmcxfJEsmP53yHdPk-345" vertex="1" connectable="0">
          <mxGeometry x="-0.1871" relative="1" as="geometry">
            <mxPoint as="offset"/>
          </mxGeometry>
        </mxCell>
        <mxCell id="OX4fmcxfJEsmP53yHdPk-151" value="" style="rounded=0;whiteSpace=wrap;html=1;labelBackgroundColor=none;strokeColor=#82B366;fillColor=#FFFFFF;fontSize=19;align=center;fontColor=#333333;dashed=1;" parent="1" vertex="1">
          <mxGeometry x="776" y="452" width="385" height="267" as="geometry"/>
        </mxCell>
        <mxCell id="OX4fmcxfJEsmP53yHdPk-364" style="edgeStyle=orthogonalEdgeStyle;rounded=0;orthogonalLoop=1;jettySize=auto;html=1;exitX=0.5;exitY=0;exitDx=0;exitDy=0;entryX=0.5;entryY=1;entryDx=0;entryDy=0;strokeColor=#0066CC;fontSize=15;" parent="1" source="OX4fmcxfJEsmP53yHdPk-193" target="OX4fmcxfJEsmP53yHdPk-280" edge="1">
          <mxGeometry relative="1" as="geometry"/>
        </mxCell>
        <mxCell id="OX4fmcxfJEsmP53yHdPk-365" value="GRPC / HTTP" style="text;html=1;resizable=0;points=[];align=center;verticalAlign=middle;labelBackgroundColor=#ffffff;fontSize=15;" parent="OX4fmcxfJEsmP53yHdPk-364" vertex="1" connectable="0">
          <mxGeometry x="-0.0417" relative="1" as="geometry">
            <mxPoint as="offset"/>
          </mxGeometry>
        </mxCell>
        <mxCell id="OX4fmcxfJEsmP53yHdPk-366" style="edgeStyle=orthogonalEdgeStyle;rounded=0;orthogonalLoop=1;jettySize=auto;html=1;exitX=1;exitY=0.25;exitDx=0;exitDy=0;entryX=0.75;entryY=1;entryDx=0;entryDy=0;strokeColor=#0066CC;fontSize=15;" parent="1" source="OX4fmcxfJEsmP53yHdPk-193" target="OX4fmcxfJEsmP53yHdPk-302" edge="1">
          <mxGeometry relative="1" as="geometry">
            <Array as="points">
              <mxPoint x="1812" y="874"/>
              <mxPoint x="1812" y="418"/>
              <mxPoint x="1746" y="418"/>
            </Array>
          </mxGeometry>
        </mxCell>
        <mxCell id="OX4fmcxfJEsmP53yHdPk-367" value="GRPC / HTTP" style="text;html=1;resizable=0;points=[];align=center;verticalAlign=middle;labelBackgroundColor=#ffffff;fontSize=15;" parent="OX4fmcxfJEsmP53yHdPk-366" vertex="1" connectable="0">
          <mxGeometry x="-0.5518" y="2" relative="1" as="geometry">
            <mxPoint as="offset"/>
          </mxGeometry>
        </mxCell>
        <mxCell id="wujyxgY4NEIOlfJlrqJw-47" value="HTTP" style="edgeStyle=orthogonalEdgeStyle;rounded=0;orthogonalLoop=1;jettySize=auto;html=1;exitX=0;exitY=0.75;exitDx=0;exitDy=0;entryX=0.994;entryY=0.345;entryDx=0;entryDy=0;entryPerimeter=0;strokeWidth=2;fontSize=15;fillColor=#d5e8d4;strokeColor=#82b366;" parent="1" source="OX4fmcxfJEsmP53yHdPk-193" target="wujyxgY4NEIOlfJlrqJw-21" edge="1">
          <mxGeometry relative="1" as="geometry">
            <Array as="points">
              <mxPoint x="1172" y="1025"/>
              <mxPoint x="1172" y="1307"/>
            </Array>
          </mxGeometry>
        </mxCell>
        <mxCell id="8DgzsWet9Qr9mS-sWMTl-2" style="edgeStyle=orthogonalEdgeStyle;rounded=0;jumpSize=6;orthogonalLoop=1;jettySize=auto;html=1;exitX=0;exitY=0.5;exitDx=0;exitDy=0;entryX=1;entryY=0.25;entryDx=0;entryDy=0;startArrow=none;startFill=0;endArrow=classic;endFill=1;strokeColor=#82b366;fontSize=12;fillColor=#d5e8d4;" parent="1" source="OX4fmcxfJEsmP53yHdPk-193" target="wujyxgY4NEIOlfJlrqJw-24" edge="1">
          <mxGeometry relative="1" as="geometry">
            <Array as="points">
              <mxPoint x="1145" y="950"/>
              <mxPoint x="1145" y="1020"/>
            </Array>
          </mxGeometry>
        </mxCell>
        <mxCell id="8DgzsWet9Qr9mS-sWMTl-3" value="JDBC" style="text;html=1;resizable=0;points=[];align=center;verticalAlign=middle;labelBackgroundColor=#ffffff;fontSize=12;" parent="8DgzsWet9Qr9mS-sWMTl-2" vertex="1" connectable="0">
          <mxGeometry x="-0.0566" y="5" relative="1" as="geometry">
            <mxPoint as="offset"/>
          </mxGeometry>
        </mxCell>
        <mxCell id="8DgzsWet9Qr9mS-sWMTl-56" style="edgeStyle=orthogonalEdgeStyle;rounded=0;jumpStyle=arc;jumpSize=12;orthogonalLoop=1;jettySize=auto;html=1;exitX=0;exitY=0.25;exitDx=0;exitDy=0;entryX=0.5;entryY=1;entryDx=0;entryDy=0;startArrow=none;startFill=0;endArrow=classic;endFill=1;strokeColor=#FF00FF;fontSize=12;" parent="1" source="OX4fmcxfJEsmP53yHdPk-193" target="OX4fmcxfJEsmP53yHdPk-129" edge="1">
          <mxGeometry relative="1" as="geometry"/>
        </mxCell>
        <mxCell id="8DgzsWet9Qr9mS-sWMTl-57" value="GRPC/HTTP" style="text;html=1;resizable=0;points=[];align=center;verticalAlign=middle;labelBackgroundColor=#ffffff;fontSize=12;" parent="8DgzsWet9Qr9mS-sWMTl-56" vertex="1" connectable="0">
          <mxGeometry x="-0.036" relative="1" as="geometry">
            <mxPoint as="offset"/>
          </mxGeometry>
        </mxCell>
        <mxCell id="8DgzsWet9Qr9mS-sWMTl-61" style="edgeStyle=orthogonalEdgeStyle;rounded=0;jumpStyle=arc;jumpSize=12;orthogonalLoop=1;jettySize=auto;html=1;exitX=0.75;exitY=1;exitDx=0;exitDy=0;entryX=0.039;entryY=0.303;entryDx=0;entryDy=0;entryPerimeter=0;startArrow=none;startFill=0;endArrow=classic;endFill=1;strokeColor=#FF00FF;fontSize=12;" parent="1" source="OX4fmcxfJEsmP53yHdPk-193" target="OX4fmcxfJEsmP53yHdPk-433" edge="1">
          <mxGeometry relative="1" as="geometry"/>
        </mxCell>
        <mxCell id="8DgzsWet9Qr9mS-sWMTl-62" value="HTTP" style="text;html=1;resizable=0;points=[];align=center;verticalAlign=middle;labelBackgroundColor=#ffffff;fontSize=12;" parent="8DgzsWet9Qr9mS-sWMTl-61" vertex="1" connectable="0">
          <mxGeometry x="-0.0596" y="3" relative="1" as="geometry">
            <mxPoint y="1" as="offset"/>
          </mxGeometry>
        </mxCell>
        <mxCell id="OX4fmcxfJEsmP53yHdPk-193" value="" style="rounded=0;whiteSpace=wrap;html=1;labelBackgroundColor=none;strokeColor=#6c8ebf;fillColor=#dae8fc;fontSize=19;align=center;strokeWidth=2;dashed=1;" parent="1" vertex="1">
          <mxGeometry x="1377.5" y="799" width="415" height="302" as="geometry"/>
        </mxCell>
        <mxCell id="OX4fmcxfJEsmP53yHdPk-244" value="" style="endArrow=classic;html=1;strokeColor=#0066CC;strokeWidth=1;fontSize=15;entryX=-0.002;entryY=0.31;entryDx=0;entryDy=0;exitX=1.005;exitY=0.182;exitDx=0;exitDy=0;exitPerimeter=0;entryPerimeter=0;" parent="1" edge="1">
          <mxGeometry width="50" height="50" relative="1" as="geometry">
            <mxPoint x="697.2150000000001" y="550.01" as="sourcePoint"/>
            <mxPoint x="775.23" y="552.77" as="targetPoint"/>
          </mxGeometry>
        </mxCell>
        <mxCell id="OX4fmcxfJEsmP53yHdPk-259" value="HTTP" style="text;html=1;resizable=0;points=[];align=center;verticalAlign=middle;labelBackgroundColor=#ffffff;fontSize=12;" parent="OX4fmcxfJEsmP53yHdPk-244" vertex="1" connectable="0">
          <mxGeometry x="-0.222" relative="1" as="geometry">
            <mxPoint as="offset"/>
          </mxGeometry>
        </mxCell>
        <mxCell id="OX4fmcxfJEsmP53yHdPk-245" value="外联前置" style="text;html=1;resizable=0;points=[];autosize=1;align=center;verticalAlign=top;spacingTop=-4;fontSize=17;" parent="1" vertex="1">
          <mxGeometry x="465" y="458" width="78" height="20" as="geometry"/>
        </mxCell>
        <mxCell id="OX4fmcxfJEsmP53yHdPk-246" value="外联前置" style="rounded=0;whiteSpace=wrap;html=1;fillColor=#d5e8d4;fontSize=15;strokeColor=#82b366;" parent="1" vertex="1">
          <mxGeometry x="442.5" y="492" width="120" height="60" as="geometry"/>
        </mxCell>
        <mxCell id="OX4fmcxfJEsmP53yHdPk-247" value="外联前置" style="rounded=0;whiteSpace=wrap;html=1;fillColor=#d5e8d4;fontSize=15;strokeColor=#82b366;" parent="1" vertex="1">
          <mxGeometry x="442.5" y="572" width="120" height="60" as="geometry"/>
        </mxCell>
        <mxCell id="OX4fmcxfJEsmP53yHdPk-249" value="" style="verticalLabelPosition=bottom;html=1;verticalAlign=top;align=center;strokeColor=none;fillColor=#E6E6E6;shape=mxgraph.azure.user;fontSize=15;" parent="1" vertex="1">
          <mxGeometry x="154.5" y="522" width="50" height="50" as="geometry"/>
        </mxCell>
        <mxCell id="OX4fmcxfJEsmP53yHdPk-250" value="" style="points=[];aspect=fixed;html=1;align=center;shadow=0;dashed=0;image;image=img/lib/allied_telesis/computer_and_terminals/Personal_Computer.svg;fillColor=#FFFFFF;fontSize=15;" parent="1" vertex="1">
          <mxGeometry x="212" y="523" width="36" height="48.82" as="geometry"/>
        </mxCell>
        <mxCell id="OX4fmcxfJEsmP53yHdPk-251" value="U链外部应用用户" style="text;html=1;resizable=0;points=[];autosize=1;align=center;verticalAlign=top;spacingTop=-4;fontSize=15;" parent="1" vertex="1">
          <mxGeometry x="120" y="574" width="126" height="18" as="geometry"/>
        </mxCell>
        <mxCell id="OX4fmcxfJEsmP53yHdPk-255" value="U链业务应用服务器集群(互联网区)" style="text;html=1;resizable=0;points=[];autosize=1;align=center;verticalAlign=top;spacingTop=-4;fontSize=17;" parent="1" vertex="1">
          <mxGeometry x="851.5" y="465" width="272" height="20" as="geometry"/>
        </mxCell>
        <mxCell id="OX4fmcxfJEsmP53yHdPk-256" value="应用服务器" style="rounded=0;whiteSpace=wrap;html=1;fillColor=#d5e8d4;fontSize=15;align=center;strokeColor=#82b366;" parent="1" vertex="1">
          <mxGeometry x="810.5" y="506" width="135" height="185" as="geometry"/>
        </mxCell>
        <mxCell id="OX4fmcxfJEsmP53yHdPk-257" value="应用服务器" style="rounded=0;whiteSpace=wrap;html=1;fillColor=#d5e8d4;fontSize=15;align=center;strokeColor=#82b366;" parent="1" vertex="1">
          <mxGeometry x="989" y="513" width="140" height="173" as="geometry"/>
        </mxCell>
        <mxCell id="OX4fmcxfJEsmP53yHdPk-258" value="" style="endArrow=classic;startArrow=classic;html=1;strokeColor=#0066CC;fontSize=15;exitX=1;exitY=0.5;exitDx=0;exitDy=0;entryX=0;entryY=0.5;entryDx=0;entryDy=0;" parent="1" source="OX4fmcxfJEsmP53yHdPk-256" target="OX4fmcxfJEsmP53yHdPk-257" edge="1">
          <mxGeometry width="50" height="50" relative="1" as="geometry">
            <mxPoint x="917" y="723" as="sourcePoint"/>
            <mxPoint x="967" y="673" as="targetPoint"/>
          </mxGeometry>
        </mxCell>
        <mxCell id="OX4fmcxfJEsmP53yHdPk-280" value="" style="rounded=0;whiteSpace=wrap;html=1;labelBackgroundColor=none;strokeColor=#82B366;fillColor=none;fontSize=19;align=center;dashed=1;" parent="1" vertex="1">
          <mxGeometry x="1392.5" y="452.5" width="385" height="267" as="geometry"/>
        </mxCell>
        <mxCell id="OX4fmcxfJEsmP53yHdPk-281" value="" style="group;fillColor=#60a917;strokeColor=#2D7600;fontColor=#ffffff;" parent="1" vertex="1" connectable="0">
          <mxGeometry x="1411.5" y="504" width="153" height="82" as="geometry"/>
        </mxCell>
        <mxCell id="OX4fmcxfJEsmP53yHdPk-291" value="" style="rounded=0;whiteSpace=wrap;html=1;fillColor=#d5e8d4;fontSize=15;align=center;strokeColor=#82b366;" parent="1" vertex="1">
          <mxGeometry x="1612.5" y="504" width="153" height="82" as="geometry"/>
        </mxCell>
        <mxCell id="OX4fmcxfJEsmP53yHdPk-292" value="账本服务器2" style="text;html=1;resizable=0;points=[];autosize=1;align=center;verticalAlign=top;spacingTop=-4;fontSize=15;" parent="1" vertex="1">
          <mxGeometry x="1635" y="508.5" width="93" height="18" as="geometry"/>
        </mxCell>
        <mxCell id="OX4fmcxfJEsmP53yHdPk-293" value="智能合约" style="rounded=0;whiteSpace=wrap;html=1;fillColor=#60a917;fontSize=15;align=center;strokeColor=#2D7600;fontColor=#ffffff;" parent="1" vertex="1">
          <mxGeometry x="1628" y="532.5" width="122" height="42" as="geometry"/>
        </mxCell>
        <mxCell id="OX4fmcxfJEsmP53yHdPk-294" value="" style="rounded=0;whiteSpace=wrap;html=1;fillColor=#d5e8d4;fontSize=15;align=center;strokeColor=#82b366;" parent="1" vertex="1">
          <mxGeometry x="1411.5" y="620.5" width="153" height="82" as="geometry"/>
        </mxCell>
        <mxCell id="OX4fmcxfJEsmP53yHdPk-295" value="账本服务器3" style="text;html=1;resizable=0;points=[];autosize=1;align=center;verticalAlign=top;spacingTop=-4;fontSize=15;" parent="1" vertex="1">
          <mxGeometry x="1434" y="625" width="93" height="18" as="geometry"/>
        </mxCell>
        <mxCell id="OX4fmcxfJEsmP53yHdPk-296" value="智能合约" style="rounded=0;whiteSpace=wrap;html=1;fillColor=#60a917;fontSize=15;align=center;strokeColor=#2D7600;fontColor=#ffffff;" parent="1" vertex="1">
          <mxGeometry x="1427" y="649" width="122" height="42" as="geometry"/>
        </mxCell>
        <mxCell id="OX4fmcxfJEsmP53yHdPk-297" value="" style="rounded=0;whiteSpace=wrap;html=1;fillColor=#d5e8d4;fontSize=15;align=center;strokeColor=#82b366;" parent="1" vertex="1">
          <mxGeometry x="1612.5" y="619.5" width="153" height="82" as="geometry"/>
        </mxCell>
        <mxCell id="OX4fmcxfJEsmP53yHdPk-298" value="账本服务器4" style="text;html=1;resizable=0;points=[];autosize=1;align=center;verticalAlign=top;spacingTop=-4;fontSize=15;" parent="1" vertex="1">
          <mxGeometry x="1635" y="624" width="93" height="18" as="geometry"/>
        </mxCell>
        <mxCell id="OX4fmcxfJEsmP53yHdPk-299" value="智能合约" style="rounded=0;whiteSpace=wrap;html=1;fillColor=#60a917;fontSize=15;align=center;strokeColor=#2D7600;fontColor=#ffffff;" parent="1" vertex="1">
          <mxGeometry x="1628" y="648" width="122" height="42" as="geometry"/>
        </mxCell>
        <mxCell id="OX4fmcxfJEsmP53yHdPk-301" value="账本服务器集群" style="text;html=1;resizable=0;points=[];autosize=1;align=center;verticalAlign=top;spacingTop=-4;fontSize=17;" parent="1" vertex="1">
          <mxGeometry x="1535" y="464" width="115" height="18" as="geometry"/>
        </mxCell>
        <mxCell id="OX4fmcxfJEsmP53yHdPk-282" value="" style="rounded=0;whiteSpace=wrap;html=1;fillColor=#d5e8d4;fontSize=15;align=center;strokeColor=#82b366;" parent="1" vertex="1">
          <mxGeometry x="1411.5" y="504" width="153" height="82" as="geometry"/>
        </mxCell>
        <mxCell id="OX4fmcxfJEsmP53yHdPk-283" value="账本服务器1" style="text;html=1;resizable=0;points=[];autosize=1;align=center;verticalAlign=top;spacingTop=-4;fontSize=15;" parent="1" vertex="1">
          <mxGeometry x="1443.5" y="508.5" width="93" height="18" as="geometry"/>
        </mxCell>
        <mxCell id="OX4fmcxfJEsmP53yHdPk-284" value="智能合约" style="rounded=0;whiteSpace=wrap;html=1;fillColor=#60a917;fontSize=15;align=center;strokeColor=#2D7600;fontColor=#ffffff;" parent="1" vertex="1">
          <mxGeometry x="1427" y="532.5" width="122" height="42" as="geometry"/>
        </mxCell>
        <mxCell id="OX4fmcxfJEsmP53yHdPk-302" value="" style="rounded=0;whiteSpace=wrap;html=1;labelBackgroundColor=none;strokeColor=#82B366;fillColor=none;fontSize=19;align=center;dashed=1;" parent="1" vertex="1">
          <mxGeometry x="1324.5" y="94.5" width="562" height="267" as="geometry"/>
        </mxCell>
        <mxCell id="OX4fmcxfJEsmP53yHdPk-303" value="" style="group;fillColor=#60a917;strokeColor=#2D7600;fontColor=#ffffff;" parent="1" vertex="1" connectable="0">
          <mxGeometry x="1343.5" y="146" width="153" height="82" as="geometry"/>
        </mxCell>
        <mxCell id="OX4fmcxfJEsmP53yHdPk-313" value="共识服务器集群" style="text;html=1;resizable=0;points=[];autosize=1;align=center;verticalAlign=top;spacingTop=-4;fontSize=17;" parent="1" vertex="1">
          <mxGeometry x="1544.5" y="105" width="115" height="18" as="geometry"/>
        </mxCell>
        <mxCell id="OX4fmcxfJEsmP53yHdPk-314" value="" style="rounded=0;whiteSpace=wrap;html=1;fillColor=#d5e8d4;fontSize=15;align=center;strokeColor=#82b366;" parent="1" vertex="1">
          <mxGeometry x="1343.5" y="141.5" width="153" height="197" as="geometry"/>
        </mxCell>
        <mxCell id="OX4fmcxfJEsmP53yHdPk-315" value="共识服务器1" style="text;html=1;resizable=0;points=[];autosize=1;align=center;verticalAlign=top;spacingTop=-4;fontSize=15;" parent="1" vertex="1">
          <mxGeometry x="1375.5" y="148.5" width="93" height="18" as="geometry"/>
        </mxCell>
        <mxCell id="OX4fmcxfJEsmP53yHdPk-316" value="kafka1" style="rounded=0;whiteSpace=wrap;html=1;fillColor=#008a00;fontSize=15;align=center;strokeColor=#005700;fontColor=#ffffff;flipH=0;" parent="1" vertex="1">
          <mxGeometry x="1359.5" y="174.5" width="122" height="34" as="geometry"/>
        </mxCell>
        <mxCell id="OX4fmcxfJEsmP53yHdPk-317" value="kafka2" style="rounded=0;whiteSpace=wrap;html=1;fillColor=#008a00;fontSize=15;align=center;strokeColor=#005700;fontColor=#ffffff;" parent="1" vertex="1">
          <mxGeometry x="1359.5" y="214" width="122" height="34" as="geometry"/>
        </mxCell>
        <mxCell id="OX4fmcxfJEsmP53yHdPk-318" value="zookeeper" style="rounded=0;whiteSpace=wrap;html=1;fillColor=#008a00;fontSize=15;align=center;strokeColor=#005700;fontColor=#ffffff;" parent="1" vertex="1">
          <mxGeometry x="1359.5" y="254" width="122" height="34" as="geometry"/>
        </mxCell>
        <mxCell id="OX4fmcxfJEsmP53yHdPk-320" value="Fabric orderer" style="rounded=0;whiteSpace=wrap;html=1;fillColor=#008a00;fontSize=15;align=center;strokeColor=#005700;fontColor=#ffffff;" parent="1" vertex="1">
          <mxGeometry x="1359.5" y="295" width="122" height="34" as="geometry"/>
        </mxCell>
        <mxCell id="OX4fmcxfJEsmP53yHdPk-323" value="" style="group;fillColor=#60a917;strokeColor=#2D7600;fontColor=#ffffff;" parent="1" vertex="1" connectable="0">
          <mxGeometry x="1523.5" y="147" width="153" height="82" as="geometry"/>
        </mxCell>
        <mxCell id="OX4fmcxfJEsmP53yHdPk-324" value="" style="rounded=0;whiteSpace=wrap;html=1;fillColor=#d5e8d4;fontSize=15;align=center;strokeColor=#82b366;" parent="1" vertex="1">
          <mxGeometry x="1523.5" y="142.5" width="153" height="197" as="geometry"/>
        </mxCell>
        <mxCell id="OX4fmcxfJEsmP53yHdPk-325" value="共识服务器1" style="text;html=1;resizable=0;points=[];autosize=1;align=center;verticalAlign=top;spacingTop=-4;fontSize=15;" parent="1" vertex="1">
          <mxGeometry x="1555.5" y="149.5" width="93" height="18" as="geometry"/>
        </mxCell>
        <mxCell id="OX4fmcxfJEsmP53yHdPk-326" value="kafka1" style="rounded=0;whiteSpace=wrap;html=1;fillColor=#008a00;fontSize=15;align=center;strokeColor=#005700;fontColor=#ffffff;flipH=0;" parent="1" vertex="1">
          <mxGeometry x="1539.5" y="175.5" width="122" height="34" as="geometry"/>
        </mxCell>
        <mxCell id="OX4fmcxfJEsmP53yHdPk-327" value="kafka2" style="rounded=0;whiteSpace=wrap;html=1;fillColor=#008a00;fontSize=15;align=center;strokeColor=#005700;fontColor=#ffffff;" parent="1" vertex="1">
          <mxGeometry x="1539.5" y="215" width="122" height="34" as="geometry"/>
        </mxCell>
        <mxCell id="OX4fmcxfJEsmP53yHdPk-328" value="zookeeper" style="rounded=0;whiteSpace=wrap;html=1;fillColor=#008a00;fontSize=15;align=center;strokeColor=#005700;fontColor=#ffffff;" parent="1" vertex="1">
          <mxGeometry x="1539.5" y="255" width="122" height="34" as="geometry"/>
        </mxCell>
        <mxCell id="OX4fmcxfJEsmP53yHdPk-329" value="Fabric orderer" style="rounded=0;whiteSpace=wrap;html=1;fillColor=#008a00;fontSize=15;align=center;strokeColor=#005700;fontColor=#ffffff;" parent="1" vertex="1">
          <mxGeometry x="1539.5" y="296" width="122" height="34" as="geometry"/>
        </mxCell>
        <mxCell id="OX4fmcxfJEsmP53yHdPk-330" value="" style="group;fillColor=#60a917;strokeColor=#2D7600;fontColor=#ffffff;" parent="1" vertex="1" connectable="0">
          <mxGeometry x="1704.5" y="147" width="153" height="82" as="geometry"/>
        </mxCell>
        <mxCell id="OX4fmcxfJEsmP53yHdPk-331" value="" style="rounded=0;whiteSpace=wrap;html=1;fillColor=#d5e8d4;fontSize=15;align=center;strokeColor=#82b366;" parent="1" vertex="1">
          <mxGeometry x="1704.5" y="142.5" width="153" height="197" as="geometry"/>
        </mxCell>
        <mxCell id="OX4fmcxfJEsmP53yHdPk-332" value="共识服务器1" style="text;html=1;resizable=0;points=[];autosize=1;align=center;verticalAlign=top;spacingTop=-4;fontSize=15;" parent="1" vertex="1">
          <mxGeometry x="1736.5" y="149.5" width="93" height="18" as="geometry"/>
        </mxCell>
        <mxCell id="OX4fmcxfJEsmP53yHdPk-333" value="kafka1" style="rounded=0;whiteSpace=wrap;html=1;fillColor=#008a00;fontSize=15;align=center;strokeColor=#005700;fontColor=#ffffff;flipH=0;" parent="1" vertex="1">
          <mxGeometry x="1720.5" y="175.5" width="122" height="34" as="geometry"/>
        </mxCell>
        <mxCell id="OX4fmcxfJEsmP53yHdPk-334" value="kafka2" style="rounded=0;whiteSpace=wrap;html=1;fillColor=#008a00;fontSize=15;align=center;strokeColor=#005700;fontColor=#ffffff;" parent="1" vertex="1">
          <mxGeometry x="1720.5" y="215" width="122" height="34" as="geometry"/>
        </mxCell>
        <mxCell id="OX4fmcxfJEsmP53yHdPk-335" value="zookeeper" style="rounded=0;whiteSpace=wrap;html=1;fillColor=#008a00;fontSize=15;align=center;strokeColor=#005700;fontColor=#ffffff;" parent="1" vertex="1">
          <mxGeometry x="1720.5" y="255" width="122" height="34" as="geometry"/>
        </mxCell>
        <mxCell id="OX4fmcxfJEsmP53yHdPk-336" value="Fabric orderer" style="rounded=0;whiteSpace=wrap;html=1;fillColor=#008a00;fontSize=15;align=center;strokeColor=#005700;fontColor=#ffffff;" parent="1" vertex="1">
          <mxGeometry x="1720.5" y="296" width="122" height="34" as="geometry"/>
        </mxCell>
        <mxCell id="OX4fmcxfJEsmP53yHdPk-343" value="" style="endArrow=classic;startArrow=classic;html=1;strokeColor=#0066CC;fontSize=12;entryX=0;entryY=0.5;entryDx=0;entryDy=0;exitX=1;exitY=0.5;exitDx=0;exitDy=0;" parent="1" source="OX4fmcxfJEsmP53yHdPk-151" target="OX4fmcxfJEsmP53yHdPk-280" edge="1">
          <mxGeometry width="50" height="50" relative="1" as="geometry">
            <mxPoint x="1232" y="610" as="sourcePoint"/>
            <mxPoint x="1282" y="560" as="targetPoint"/>
          </mxGeometry>
        </mxCell>
        <mxCell id="OX4fmcxfJEsmP53yHdPk-344" value="GRPC" style="text;html=1;resizable=0;points=[];align=center;verticalAlign=middle;labelBackgroundColor=#ffffff;fontSize=12;" parent="OX4fmcxfJEsmP53yHdPk-343" vertex="1" connectable="0">
          <mxGeometry x="-0.2138" y="-1" relative="1" as="geometry">
            <mxPoint x="-46" y="-0.5" as="offset"/>
          </mxGeometry>
        </mxCell>
        <mxCell id="OX4fmcxfJEsmP53yHdPk-347" value="区块链服务平台&lt;br style=&quot;font-size: 18px&quot;&gt;服务器集群" style="text;html=1;resizable=0;points=[];autosize=1;align=center;verticalAlign=top;spacingTop=-4;fontSize=18;" parent="1" vertex="1">
          <mxGeometry x="1534" y="806.5" width="136" height="44" as="geometry"/>
        </mxCell>
        <mxCell id="OX4fmcxfJEsmP53yHdPk-348" value="" style="rounded=0;whiteSpace=wrap;html=1;labelBackgroundColor=#ffffff;strokeColor=#10739e;fillColor=#99CCFF;fontSize=18;align=center;" parent="1" vertex="1">
          <mxGeometry x="1408.5" y="858" width="157" height="217" as="geometry"/>
        </mxCell>
        <mxCell id="OX4fmcxfJEsmP53yHdPk-349" value="" style="rounded=0;whiteSpace=wrap;html=1;labelBackgroundColor=#ffffff;strokeColor=#6C8EBF;fillColor=#99CCFF;fontSize=18;align=center;" parent="1" vertex="1">
          <mxGeometry x="1607.5" y="858" width="157" height="215" as="geometry"/>
        </mxCell>
        <mxCell id="OX4fmcxfJEsmP53yHdPk-350" value="" style="endArrow=classic;startArrow=classic;html=1;strokeColor=#0066CC;fontSize=18;exitX=1;exitY=0.5;exitDx=0;exitDy=0;entryX=0;entryY=0.5;entryDx=0;entryDy=0;" parent="1" source="OX4fmcxfJEsmP53yHdPk-348" target="OX4fmcxfJEsmP53yHdPk-349" edge="1">
          <mxGeometry width="50" height="50" relative="1" as="geometry">
            <mxPoint x="1571.5" y="1017" as="sourcePoint"/>
            <mxPoint x="1621.5" y="967" as="targetPoint"/>
          </mxGeometry>
        </mxCell>
        <mxCell id="OX4fmcxfJEsmP53yHdPk-351" value="平台服务器" style="text;html=1;resizable=0;points=[];autosize=1;align=center;verticalAlign=top;spacingTop=-4;fontSize=15;" parent="1" vertex="1">
          <mxGeometry x="1437" y="867" width="100" height="22" as="geometry"/>
        </mxCell>
        <mxCell id="OX4fmcxfJEsmP53yHdPk-353" value="平台管理" style="rounded=0;whiteSpace=wrap;html=1;fillColor=#66B2FF;fontSize=15;align=center;strokeColor=#10739e;" parent="1" vertex="1">
          <mxGeometry x="1427.5" y="898.5" width="122" height="34" as="geometry"/>
        </mxCell>
        <mxCell id="OX4fmcxfJEsmP53yHdPk-354" value="区块链管理" style="rounded=0;whiteSpace=wrap;html=1;fillColor=#66B2FF;fontSize=15;align=center;strokeColor=#10739e;" parent="1" vertex="1">
          <mxGeometry x="1427.5" y="941" width="122" height="34" as="geometry"/>
        </mxCell>
        <mxCell id="OX4fmcxfJEsmP53yHdPk-355" value="基础资源管理" style="rounded=0;whiteSpace=wrap;html=1;fillColor=#66B2FF;fontSize=15;align=center;strokeColor=#10739e;" parent="1" vertex="1">
          <mxGeometry x="1427.5" y="985.5" width="122" height="34" as="geometry"/>
        </mxCell>
        <mxCell id="OX4fmcxfJEsmP53yHdPk-356" value="区块链底层支持" style="rounded=0;whiteSpace=wrap;html=1;fillColor=#66B2FF;fontSize=15;align=center;strokeColor=#10739e;" parent="1" vertex="1">
          <mxGeometry x="1427.5" y="1028" width="122" height="34" as="geometry"/>
        </mxCell>
        <mxCell id="OX4fmcxfJEsmP53yHdPk-357" value="平台服务器" style="text;html=1;resizable=0;points=[];autosize=1;align=center;verticalAlign=top;spacingTop=-4;fontSize=15;" parent="1" vertex="1">
          <mxGeometry x="1634.5" y="869" width="100" height="22" as="geometry"/>
        </mxCell>
        <mxCell id="OX4fmcxfJEsmP53yHdPk-358" value="平台管理" style="rounded=0;whiteSpace=wrap;html=1;fillColor=#66B2FF;fontSize=15;align=center;strokeColor=#10739e;" parent="1" vertex="1">
          <mxGeometry x="1625" y="900.5" width="122" height="34" as="geometry"/>
        </mxCell>
        <mxCell id="OX4fmcxfJEsmP53yHdPk-359" value="区块链管理" style="rounded=0;whiteSpace=wrap;html=1;fillColor=#66B2FF;fontSize=15;align=center;strokeColor=#10739e;" parent="1" vertex="1">
          <mxGeometry x="1625" y="943" width="122" height="34" as="geometry"/>
        </mxCell>
        <mxCell id="OX4fmcxfJEsmP53yHdPk-360" value="基础资源管理" style="rounded=0;whiteSpace=wrap;html=1;fillColor=#66B2FF;fontSize=15;align=center;strokeColor=#10739e;" parent="1" vertex="1">
          <mxGeometry x="1625" y="987.5" width="122" height="34" as="geometry"/>
        </mxCell>
        <mxCell id="OX4fmcxfJEsmP53yHdPk-361" value="区块链底层支持" style="rounded=0;whiteSpace=wrap;html=1;fillColor=#66B2FF;fontSize=15;align=center;strokeColor=#10739e;" parent="1" vertex="1">
          <mxGeometry x="1625" y="1030" width="122" height="34" as="geometry"/>
        </mxCell>
        <mxCell id="OX4fmcxfJEsmP53yHdPk-368" value="" style="rounded=0;whiteSpace=wrap;html=1;labelBackgroundColor=none;strokeColor=#82B366;fillColor=none;fontSize=19;align=center;dashed=1;" parent="1" vertex="1">
          <mxGeometry x="1262.5" y="1214" width="385" height="267" as="geometry"/>
        </mxCell>
        <mxCell id="OX4fmcxfJEsmP53yHdPk-369" value="" style="group" parent="1" vertex="1" connectable="0">
          <mxGeometry x="1281.5" y="1262.5" width="153" height="82" as="geometry"/>
        </mxCell>
        <mxCell id="OX4fmcxfJEsmP53yHdPk-370" value="" style="rounded=0;whiteSpace=wrap;html=1;fillColor=#d5e8d4;fontSize=15;align=center;strokeColor=#82b366;" parent="OX4fmcxfJEsmP53yHdPk-369" vertex="1">
          <mxGeometry width="153" height="82" as="geometry"/>
        </mxCell>
        <mxCell id="OX4fmcxfJEsmP53yHdPk-371" value="数据库服务器1" style="text;html=1;resizable=0;points=[];autosize=1;align=center;verticalAlign=top;spacingTop=-4;fontSize=15;" parent="OX4fmcxfJEsmP53yHdPk-369" vertex="1">
          <mxGeometry x="32" y="4.5" width="89" height="14" as="geometry"/>
        </mxCell>
        <mxCell id="OX4fmcxfJEsmP53yHdPk-372" value="PostgreSQL" style="rounded=0;whiteSpace=wrap;html=1;fillColor=#fff2cc;fontSize=15;align=center;strokeColor=#d6b656;" parent="OX4fmcxfJEsmP53yHdPk-369" vertex="1">
          <mxGeometry x="15.5" y="28.5" width="122" height="42" as="geometry"/>
        </mxCell>
        <mxCell id="OX4fmcxfJEsmP53yHdPk-373" value="" style="endArrow=classic;startArrow=classic;html=1;strokeColor=#0066CC;fontSize=15;exitX=1;exitY=0.5;exitDx=0;exitDy=0;" parent="1" source="OX4fmcxfJEsmP53yHdPk-370" edge="1">
          <mxGeometry width="50" height="50" relative="1" as="geometry">
            <mxPoint x="1700.5" y="1339.5" as="sourcePoint"/>
            <mxPoint x="1486.5" y="1303.5" as="targetPoint"/>
          </mxGeometry>
        </mxCell>
        <mxCell id="OX4fmcxfJEsmP53yHdPk-374" value="同步&lt;br&gt;复制" style="text;html=1;resizable=0;points=[];align=center;verticalAlign=middle;labelBackgroundColor=#ffffff;fontSize=12;" parent="OX4fmcxfJEsmP53yHdPk-373" vertex="1" connectable="0">
          <mxGeometry x="0.0513" relative="1" as="geometry">
            <mxPoint x="-1" as="offset"/>
          </mxGeometry>
        </mxCell>
        <mxCell id="OX4fmcxfJEsmP53yHdPk-375" value="" style="endArrow=classic;startArrow=classic;html=1;strokeColor=#0066CC;fontSize=15;entryX=0.5;entryY=1;entryDx=0;entryDy=0;exitX=0.502;exitY=-0.524;exitDx=0;exitDy=0;exitPerimeter=0;" parent="1" source="OX4fmcxfJEsmP53yHdPk-383" target="OX4fmcxfJEsmP53yHdPk-370" edge="1">
          <mxGeometry width="50" height="50" relative="1" as="geometry">
            <mxPoint x="1298.5" y="1434.5" as="sourcePoint"/>
            <mxPoint x="1348.5" y="1384.5" as="targetPoint"/>
          </mxGeometry>
        </mxCell>
        <mxCell id="OX4fmcxfJEsmP53yHdPk-376" value="同步&lt;br style=&quot;font-size: 12px;&quot;&gt;复制" style="text;html=1;resizable=0;points=[];align=center;verticalAlign=middle;labelBackgroundColor=#ffffff;fontSize=12;" parent="OX4fmcxfJEsmP53yHdPk-375" vertex="1" connectable="0">
          <mxGeometry x="0.1956" y="-4" relative="1" as="geometry">
            <mxPoint x="1" y="6" as="offset"/>
          </mxGeometry>
        </mxCell>
        <mxCell id="OX4fmcxfJEsmP53yHdPk-377" value="" style="endArrow=classic;startArrow=classic;html=1;strokeColor=#0066CC;fontSize=15;exitX=0.558;exitY=-0.405;exitDx=0;exitDy=0;exitPerimeter=0;entryX=0.5;entryY=1;entryDx=0;entryDy=0;" parent="1" source="OX4fmcxfJEsmP53yHdPk-383" target="OX4fmcxfJEsmP53yHdPk-379" edge="1">
          <mxGeometry width="50" height="50" relative="1" as="geometry">
            <mxPoint x="1576.5" y="1433.5" as="sourcePoint"/>
            <mxPoint x="1626.5" y="1383.5" as="targetPoint"/>
          </mxGeometry>
        </mxCell>
        <mxCell id="OX4fmcxfJEsmP53yHdPk-378" value="同步&lt;br&gt;复制" style="text;html=1;resizable=0;points=[];align=center;verticalAlign=middle;labelBackgroundColor=#ffffff;fontSize=12;" parent="OX4fmcxfJEsmP53yHdPk-377" vertex="1" connectable="0">
          <mxGeometry x="0.0208" y="1" relative="1" as="geometry">
            <mxPoint x="-1" as="offset"/>
          </mxGeometry>
        </mxCell>
        <mxCell id="OX4fmcxfJEsmP53yHdPk-379" value="" style="rounded=0;whiteSpace=wrap;html=1;fillColor=#d5e8d4;fontSize=15;align=center;strokeColor=#82b366;" parent="1" vertex="1">
          <mxGeometry x="1482.5" y="1262.5" width="153" height="82" as="geometry"/>
        </mxCell>
        <mxCell id="OX4fmcxfJEsmP53yHdPk-380" value="数据库服务器2" style="text;html=1;resizable=0;points=[];autosize=1;align=center;verticalAlign=top;spacingTop=-4;fontSize=15;" parent="1" vertex="1">
          <mxGeometry x="1505" y="1267" width="108" height="18" as="geometry"/>
        </mxCell>
        <mxCell id="OX4fmcxfJEsmP53yHdPk-381" value="PostgreSQL" style="rounded=0;whiteSpace=wrap;html=1;fillColor=#fff2cc;fontSize=15;align=center;strokeColor=#d6b656;" parent="1" vertex="1">
          <mxGeometry x="1498" y="1291" width="122" height="42" as="geometry"/>
        </mxCell>
        <mxCell id="OX4fmcxfJEsmP53yHdPk-382" value="" style="rounded=0;whiteSpace=wrap;html=1;fillColor=#d5e8d4;fontSize=15;align=center;strokeColor=#82b366;" parent="1" vertex="1">
          <mxGeometry x="1378.5" y="1386" width="153" height="82" as="geometry"/>
        </mxCell>
        <mxCell id="OX4fmcxfJEsmP53yHdPk-383" value="数据库服务器3" style="text;html=1;resizable=0;points=[];autosize=1;align=center;verticalAlign=top;spacingTop=-4;fontSize=15;" parent="1" vertex="1">
          <mxGeometry x="1401" y="1390.5" width="108" height="18" as="geometry"/>
        </mxCell>
        <mxCell id="OX4fmcxfJEsmP53yHdPk-384" value="PostgreSQL" style="rounded=0;whiteSpace=wrap;html=1;fillColor=#fff2cc;fontSize=15;align=center;strokeColor=#d6b656;" parent="1" vertex="1">
          <mxGeometry x="1394" y="1414.5" width="122" height="42" as="geometry"/>
        </mxCell>
        <mxCell id="OX4fmcxfJEsmP53yHdPk-385" value="平台数据库集群(互联网区)" style="text;html=1;resizable=0;points=[];autosize=1;align=center;verticalAlign=top;spacingTop=-4;fontSize=17;" parent="1" vertex="1">
          <mxGeometry x="1351" y="1226.5" width="208" height="20" as="geometry"/>
        </mxCell>
        <mxCell id="OX4fmcxfJEsmP53yHdPk-387" value="" style="endArrow=classic;startArrow=classic;html=1;strokeColor=#0066CC;fontSize=15;entryX=0.5;entryY=1;entryDx=0;entryDy=0;exitX=0.5;exitY=0;exitDx=0;exitDy=0;jumpStyle=arc;jumpSize=12;" parent="1" source="OX4fmcxfJEsmP53yHdPk-151" target="OX4fmcxfJEsmP53yHdPk-152" edge="1">
          <mxGeometry width="50" height="50" relative="1" as="geometry">
            <mxPoint x="855" y="449" as="sourcePoint"/>
            <mxPoint x="905" y="399" as="targetPoint"/>
          </mxGeometry>
        </mxCell>
        <mxCell id="OX4fmcxfJEsmP53yHdPk-388" value="JDBC" style="text;html=1;resizable=0;points=[];align=center;verticalAlign=middle;labelBackgroundColor=#ffffff;fontSize=15;" parent="OX4fmcxfJEsmP53yHdPk-387" vertex="1" connectable="0">
          <mxGeometry y="-1" relative="1" as="geometry">
            <mxPoint x="1" y="8" as="offset"/>
          </mxGeometry>
        </mxCell>
        <mxCell id="OX4fmcxfJEsmP53yHdPk-389" value="" style="endArrow=classic;startArrow=classic;html=1;strokeColor=#0066CC;fontSize=15;exitX=0.5;exitY=0;exitDx=0;exitDy=0;" parent="1" source="OX4fmcxfJEsmP53yHdPk-368" edge="1">
          <mxGeometry width="50" height="50" relative="1" as="geometry">
            <mxPoint x="1510" y="1201" as="sourcePoint"/>
            <mxPoint x="1455" y="1102" as="targetPoint"/>
          </mxGeometry>
        </mxCell>
        <mxCell id="OX4fmcxfJEsmP53yHdPk-390" value="JDBC" style="text;html=1;resizable=0;points=[];align=center;verticalAlign=middle;labelBackgroundColor=#ffffff;fontSize=15;" parent="OX4fmcxfJEsmP53yHdPk-389" vertex="1" connectable="0">
          <mxGeometry x="0.005" relative="1" as="geometry">
            <mxPoint as="offset"/>
          </mxGeometry>
        </mxCell>
        <mxCell id="YwczhwZlPLgz6SLzk2xk-14" style="edgeStyle=orthogonalEdgeStyle;rounded=0;orthogonalLoop=1;jettySize=auto;html=1;exitX=0.14;exitY=0.65;exitDx=0;exitDy=0;exitPerimeter=0;endArrow=classic;endFill=1;strokeColor=#b85450;strokeWidth=1;fontSize=15;fillColor=#f8cecc;" parent="1" edge="1">
          <mxGeometry relative="1" as="geometry">
            <mxPoint x="2334" y="1309" as="targetPoint"/>
            <mxPoint x="2958" y="1309" as="sourcePoint"/>
          </mxGeometry>
        </mxCell>
        <mxCell id="YwczhwZlPLgz6SLzk2xk-15" value="HTTP" style="text;html=1;resizable=0;points=[];align=center;verticalAlign=middle;labelBackgroundColor=#ffffff;fontSize=15;" parent="YwczhwZlPLgz6SLzk2xk-14" vertex="1" connectable="0">
          <mxGeometry x="0.125" y="-4" relative="1" as="geometry">
            <mxPoint x="1" as="offset"/>
          </mxGeometry>
        </mxCell>
        <mxCell id="OX4fmcxfJEsmP53yHdPk-391" value="" style="verticalLabelPosition=bottom;html=1;verticalAlign=top;align=center;strokeColor=none;fillColor=#00BEF2;shape=mxgraph.azure.user;fontSize=15;" parent="1" vertex="1">
          <mxGeometry x="2946" y="1276" width="50" height="50" as="geometry"/>
        </mxCell>
        <mxCell id="OX4fmcxfJEsmP53yHdPk-392" value="" style="points=[];aspect=fixed;html=1;align=center;shadow=0;dashed=0;image;image=img/lib/allied_telesis/computer_and_terminals/Personal_Computer.svg;fillColor=#FFFFFF;fontSize=15;" parent="1" vertex="1">
          <mxGeometry x="3003.5" y="1277" width="36" height="48.82" as="geometry"/>
        </mxCell>
        <mxCell id="OX4fmcxfJEsmP53yHdPk-393" value="区块链服务平台用户" style="text;html=1;resizable=0;points=[];autosize=1;align=center;verticalAlign=top;spacingTop=-4;fontSize=15;" parent="1" vertex="1">
          <mxGeometry x="2902.5" y="1328" width="145" height="18" as="geometry"/>
        </mxCell>
        <mxCell id="OX4fmcxfJEsmP53yHdPk-431" style="edgeStyle=orthogonalEdgeStyle;rounded=0;jumpStyle=arc;jumpSize=13;orthogonalLoop=1;jettySize=auto;html=1;exitX=0;exitY=0.5;exitDx=0;exitDy=0;strokeColor=#0066CC;fontSize=15;" parent="1" source="OX4fmcxfJEsmP53yHdPk-399" target="OX4fmcxfJEsmP53yHdPk-405" edge="1">
          <mxGeometry relative="1" as="geometry"/>
        </mxCell>
        <mxCell id="OX4fmcxfJEsmP53yHdPk-432" value="HTTP" style="text;html=1;resizable=0;points=[];align=center;verticalAlign=middle;labelBackgroundColor=#ffffff;fontSize=15;" parent="OX4fmcxfJEsmP53yHdPk-431" vertex="1" connectable="0">
          <mxGeometry x="-0.0057" y="4" relative="1" as="geometry">
            <mxPoint x="3" y="-2" as="offset"/>
          </mxGeometry>
        </mxCell>
        <mxCell id="OX4fmcxfJEsmP53yHdPk-399" value="负载均衡器" style="rounded=0;whiteSpace=wrap;html=1;labelBackgroundColor=none;strokeColor=#6c8ebf;fillColor=#dae8fc;fontSize=19;align=center;spacingLeft=5;spacingRight=5;" parent="1" vertex="1">
          <mxGeometry x="2873" y="1008" width="43" height="237" as="geometry"/>
        </mxCell>
        <mxCell id="OX4fmcxfJEsmP53yHdPk-404" style="edgeStyle=orthogonalEdgeStyle;rounded=0;orthogonalLoop=1;jettySize=auto;html=1;exitX=0.14;exitY=0.65;exitDx=0;exitDy=0;exitPerimeter=0;entryX=1;entryY=0.5;entryDx=0;entryDy=0;strokeColor=#0066CC;fontSize=15;" parent="1" source="OX4fmcxfJEsmP53yHdPk-401" target="OX4fmcxfJEsmP53yHdPk-399" edge="1">
          <mxGeometry relative="1" as="geometry"/>
        </mxCell>
        <mxCell id="OX4fmcxfJEsmP53yHdPk-401" value="" style="verticalLabelPosition=bottom;html=1;verticalAlign=top;align=center;strokeColor=none;fillColor=#E6E6E6;shape=mxgraph.azure.user;fontSize=15;" parent="1" vertex="1">
          <mxGeometry x="2964.5" y="1094" width="50" height="50" as="geometry"/>
        </mxCell>
        <mxCell id="OX4fmcxfJEsmP53yHdPk-402" value="" style="points=[];aspect=fixed;html=1;align=center;shadow=0;dashed=0;image;image=img/lib/allied_telesis/computer_and_terminals/Personal_Computer.svg;fillColor=#FFFFFF;fontSize=15;" parent="1" vertex="1">
          <mxGeometry x="3022" y="1095" width="36" height="48.82" as="geometry"/>
        </mxCell>
        <mxCell id="OX4fmcxfJEsmP53yHdPk-403" value="U链内部应用用户" style="text;html=1;resizable=0;points=[];autosize=1;align=center;verticalAlign=top;spacingTop=-4;fontSize=15;" parent="1" vertex="1">
          <mxGeometry x="2930" y="1146" width="126" height="18" as="geometry"/>
        </mxCell>
        <mxCell id="OX4fmcxfJEsmP53yHdPk-434" style="edgeStyle=orthogonalEdgeStyle;rounded=0;jumpStyle=arc;jumpSize=13;orthogonalLoop=1;jettySize=auto;html=1;exitX=0;exitY=0.5;exitDx=0;exitDy=0;strokeColor=#0066CC;fontSize=15;" parent="1" source="OX4fmcxfJEsmP53yHdPk-405" edge="1">
          <mxGeometry relative="1" as="geometry">
            <mxPoint x="2337" y="1126" as="targetPoint"/>
            <Array as="points">
              <mxPoint x="2335" y="1126"/>
            </Array>
          </mxGeometry>
        </mxCell>
        <mxCell id="OX4fmcxfJEsmP53yHdPk-435" value="GRPC" style="text;html=1;resizable=0;points=[];align=center;verticalAlign=middle;labelBackgroundColor=#ffffff;fontSize=15;" parent="OX4fmcxfJEsmP53yHdPk-434" vertex="1" connectable="0">
          <mxGeometry x="0.15" y="-2" relative="1" as="geometry">
            <mxPoint x="8" as="offset"/>
          </mxGeometry>
        </mxCell>
        <mxCell id="OX4fmcxfJEsmP53yHdPk-405" value="" style="rounded=0;whiteSpace=wrap;html=1;labelBackgroundColor=none;strokeColor=#82B366;fillColor=#FFFFFF;fontSize=19;align=center;fontColor=#333333;dashed=1;" parent="1" vertex="1">
          <mxGeometry x="2401.5" y="992.5" width="385" height="267" as="geometry"/>
        </mxCell>
        <mxCell id="OX4fmcxfJEsmP53yHdPk-407" value="U链应用服务器集群(核心区)" style="text;html=1;resizable=0;points=[];autosize=1;align=center;verticalAlign=top;spacingTop=-4;fontSize=17;" parent="1" vertex="1">
          <mxGeometry x="2494" y="1005.5" width="221" height="20" as="geometry"/>
        </mxCell>
        <mxCell id="OX4fmcxfJEsmP53yHdPk-408" value="应用服务器" style="rounded=0;whiteSpace=wrap;html=1;fillColor=#d5e8d4;fontSize=15;align=center;strokeColor=#82b366;" parent="1" vertex="1">
          <mxGeometry x="2436" y="1046.5" width="135" height="185" as="geometry"/>
        </mxCell>
        <mxCell id="OX4fmcxfJEsmP53yHdPk-409" value="应用服务器" style="rounded=0;whiteSpace=wrap;html=1;fillColor=#d5e8d4;fontSize=15;align=center;strokeColor=#82b366;" parent="1" vertex="1">
          <mxGeometry x="2614.5" y="1053.5" width="140" height="173" as="geometry"/>
        </mxCell>
        <mxCell id="OX4fmcxfJEsmP53yHdPk-410" value="" style="endArrow=classic;startArrow=classic;html=1;strokeColor=#0066CC;fontSize=15;exitX=1;exitY=0.5;exitDx=0;exitDy=0;entryX=0;entryY=0.5;entryDx=0;entryDy=0;" parent="1" source="OX4fmcxfJEsmP53yHdPk-408" target="OX4fmcxfJEsmP53yHdPk-409" edge="1">
          <mxGeometry width="50" height="50" relative="1" as="geometry">
            <mxPoint x="2542.5" y="1263.5" as="sourcePoint"/>
            <mxPoint x="2592.5" y="1213.5" as="targetPoint"/>
          </mxGeometry>
        </mxCell>
        <mxCell id="OX4fmcxfJEsmP53yHdPk-428" value="" style="endArrow=classic;startArrow=classic;html=1;strokeColor=#0066CC;fontSize=15;entryX=0.5;entryY=1;entryDx=0;entryDy=0;exitX=0.5;exitY=0;exitDx=0;exitDy=0;" parent="1" source="OX4fmcxfJEsmP53yHdPk-405" target="OX4fmcxfJEsmP53yHdPk-406" edge="1">
          <mxGeometry width="50" height="50" relative="1" as="geometry">
            <mxPoint x="2480.5" y="989.5" as="sourcePoint"/>
            <mxPoint x="2530.5" y="939.5" as="targetPoint"/>
          </mxGeometry>
        </mxCell>
        <mxCell id="OX4fmcxfJEsmP53yHdPk-429" value="JDBC" style="text;html=1;resizable=0;points=[];align=center;verticalAlign=middle;labelBackgroundColor=#ffffff;fontSize=15;" parent="OX4fmcxfJEsmP53yHdPk-428" vertex="1" connectable="0">
          <mxGeometry y="-1" relative="1" as="geometry">
            <mxPoint x="1" as="offset"/>
          </mxGeometry>
        </mxCell>
        <mxCell id="YwczhwZlPLgz6SLzk2xk-5" style="edgeStyle=orthogonalEdgeStyle;rounded=0;orthogonalLoop=1;jettySize=auto;html=1;exitX=0.25;exitY=0;exitDx=0;exitDy=0;entryX=0.25;entryY=1;entryDx=0;entryDy=0;endArrow=classic;endFill=1;strokeColor=#d6b656;strokeWidth=1;fillColor=#fff2cc;" parent="1" edge="1">
          <mxGeometry relative="1" as="geometry">
            <mxPoint x="2206.5" y="1004.5" as="sourcePoint"/>
            <mxPoint x="2206.5" y="692" as="targetPoint"/>
          </mxGeometry>
        </mxCell>
        <mxCell id="YwczhwZlPLgz6SLzk2xk-7" value="HTTP" style="text;html=1;resizable=0;points=[];align=center;verticalAlign=middle;labelBackgroundColor=#ffffff;" parent="YwczhwZlPLgz6SLzk2xk-5" vertex="1" connectable="0">
          <mxGeometry x="-0.1667" y="-4" relative="1" as="geometry">
            <mxPoint as="offset"/>
          </mxGeometry>
        </mxCell>
        <mxCell id="YwczhwZlPLgz6SLzk2xk-16" style="edgeStyle=orthogonalEdgeStyle;rounded=0;orthogonalLoop=1;jettySize=auto;html=1;exitX=0.5;exitY=0;exitDx=0;exitDy=0;entryX=0.5;entryY=1;entryDx=0;entryDy=0;endArrow=classic;endFill=1;strokeColor=#b85450;strokeWidth=1;fontSize=15;fillColor=#f8cecc;" parent="1" edge="1">
          <mxGeometry relative="1" as="geometry">
            <mxPoint x="2229.5" y="1004.5" as="sourcePoint"/>
            <mxPoint x="2229.5" y="692" as="targetPoint"/>
          </mxGeometry>
        </mxCell>
        <mxCell id="YwczhwZlPLgz6SLzk2xk-17" value="HTTP" style="text;html=1;resizable=0;points=[];align=center;verticalAlign=middle;labelBackgroundColor=#ffffff;fontSize=15;" parent="YwczhwZlPLgz6SLzk2xk-16" vertex="1" connectable="0">
          <mxGeometry x="0.5385" y="-2" relative="1" as="geometry">
            <mxPoint as="offset"/>
          </mxGeometry>
        </mxCell>
        <mxCell id="8DgzsWet9Qr9mS-sWMTl-18" style="edgeStyle=orthogonalEdgeStyle;rounded=0;jumpStyle=arc;jumpSize=12;orthogonalLoop=1;jettySize=auto;html=1;exitX=0.75;exitY=0;exitDx=0;exitDy=0;entryX=0.75;entryY=1;entryDx=0;entryDy=0;startArrow=none;startFill=0;endArrow=classic;endFill=1;strokeColor=#67AB9F;fontSize=12;" parent="1" edge="1">
          <mxGeometry relative="1" as="geometry">
            <mxPoint x="2290.5" y="1004.5" as="sourcePoint"/>
            <mxPoint x="2290.5" y="692" as="targetPoint"/>
          </mxGeometry>
        </mxCell>
        <mxCell id="8DgzsWet9Qr9mS-sWMTl-19" value="HTTP" style="text;html=1;resizable=0;points=[];align=center;verticalAlign=middle;labelBackgroundColor=#ffffff;fontSize=12;" parent="8DgzsWet9Qr9mS-sWMTl-18" vertex="1" connectable="0">
          <mxGeometry x="-0.536" y="-2" relative="1" as="geometry">
            <mxPoint x="1" as="offset"/>
          </mxGeometry>
        </mxCell>
        <mxCell id="8DgzsWet9Qr9mS-sWMTl-64" style="edgeStyle=orthogonalEdgeStyle;rounded=0;jumpStyle=arc;jumpSize=12;orthogonalLoop=1;jettySize=auto;html=1;exitX=0.75;exitY=0;exitDx=0;exitDy=0;entryX=0.75;entryY=1;entryDx=0;entryDy=0;startArrow=none;startFill=0;endArrow=classic;endFill=1;strokeColor=#FF00FF;fontSize=12;" parent="1" edge="1">
          <mxGeometry relative="1" as="geometry">
            <mxPoint x="2307.5" y="1004.5" as="sourcePoint"/>
            <mxPoint x="2307.5" y="692" as="targetPoint"/>
          </mxGeometry>
        </mxCell>
        <mxCell id="8DgzsWet9Qr9mS-sWMTl-65" value="HTTP" style="text;html=1;resizable=0;points=[];align=center;verticalAlign=middle;labelBackgroundColor=#ffffff;fontSize=12;" parent="8DgzsWet9Qr9mS-sWMTl-64" vertex="1" connectable="0">
          <mxGeometry x="0.584" y="-1" relative="1" as="geometry">
            <mxPoint as="offset"/>
          </mxGeometry>
        </mxCell>
        <mxCell id="3IjrNCw-eFAvfJicf0EX-15" style="edgeStyle=orthogonalEdgeStyle;rounded=0;orthogonalLoop=1;jettySize=auto;html=1;exitX=-0.021;exitY=0.119;exitDx=0;exitDy=0;entryX=0.5;entryY=1;entryDx=0;entryDy=0;strokeColor=#0066CC;fontSize=15;jumpStyle=arc;jumpSize=12;exitPerimeter=0;" parent="1" source="OX4fmcxfJEsmP53yHdPk-433" target="3IjrNCw-eFAvfJicf0EX-4" edge="1">
          <mxGeometry relative="1" as="geometry"/>
        </mxCell>
        <mxCell id="3IjrNCw-eFAvfJicf0EX-16" value="GRPC" style="text;html=1;resizable=0;points=[];align=center;verticalAlign=middle;labelBackgroundColor=#ffffff;fontSize=15;" parent="3IjrNCw-eFAvfJicf0EX-15" vertex="1" connectable="0">
          <mxGeometry x="-0.3897" y="-77" relative="1" as="geometry">
            <mxPoint y="-1" as="offset"/>
          </mxGeometry>
        </mxCell>
        <mxCell id="OX4fmcxfJEsmP53yHdPk-433" value="负载均衡器" style="rounded=0;whiteSpace=wrap;html=1;labelBackgroundColor=none;strokeColor=#6c8ebf;fillColor=#dae8fc;fontSize=19;align=center;spacingLeft=5;spacingRight=5;" parent="1" vertex="1">
          <mxGeometry x="2193" y="1004" width="142" height="423" as="geometry"/>
        </mxCell>
        <mxCell id="YwczhwZlPLgz6SLzk2xk-13" style="edgeStyle=orthogonalEdgeStyle;rounded=0;orthogonalLoop=1;jettySize=auto;html=1;exitX=1;exitY=0.75;exitDx=0;exitDy=0;entryX=0;entryY=0.5;entryDx=0;entryDy=0;endArrow=classic;endFill=1;strokeColor=#FF00FF;strokeWidth=1;fontSize=15;fillColor=#fff2cc;" parent="1" edge="1">
          <mxGeometry relative="1" as="geometry">
            <Array as="points">
              <mxPoint x="2335" y="649"/>
            </Array>
            <mxPoint x="2336" y="630.5" as="sourcePoint"/>
            <mxPoint x="2456" y="648" as="targetPoint"/>
          </mxGeometry>
        </mxCell>
        <mxCell id="DeNsGNGsaKPxj8K3eOul-7" style="edgeStyle=orthogonalEdgeStyle;rounded=0;orthogonalLoop=1;jettySize=auto;html=1;exitX=0;exitY=0.75;exitDx=0;exitDy=0;entryX=0.5;entryY=0;entryDx=0;entryDy=0;startArrow=none;startFill=0;endArrow=classic;endFill=1;strokeColor=#B85450;" parent="1" source="OX4fmcxfJEsmP53yHdPk-436" target="DeNsGNGsaKPxj8K3eOul-2" edge="1">
          <mxGeometry relative="1" as="geometry"/>
        </mxCell>
        <mxCell id="DeNsGNGsaKPxj8K3eOul-8" value="HTTP" style="text;html=1;resizable=0;points=[];align=center;verticalAlign=middle;labelBackgroundColor=#ffffff;" parent="DeNsGNGsaKPxj8K3eOul-7" vertex="1" connectable="0">
          <mxGeometry x="0.1034" y="-2" relative="1" as="geometry">
            <mxPoint as="offset"/>
          </mxGeometry>
        </mxCell>
        <mxCell id="OX4fmcxfJEsmP53yHdPk-436" value="" style="rounded=0;whiteSpace=wrap;html=1;labelBackgroundColor=none;strokeColor=#82b366;fillColor=#FFFFFF;fontSize=19;align=center;dashed=1;" parent="1" vertex="1">
          <mxGeometry x="2193" y="489" width="142" height="202" as="geometry"/>
        </mxCell>
        <mxCell id="OX4fmcxfJEsmP53yHdPk-437" value="内联接口（平台）" style="text;html=1;resizable=0;points=[];autosize=1;align=center;verticalAlign=top;spacingTop=-4;fontSize=17;" parent="1" vertex="1">
          <mxGeometry x="2192.5" y="499" width="146" height="20" as="geometry"/>
        </mxCell>
        <mxCell id="OX4fmcxfJEsmP53yHdPk-438" value="内联接口" style="rounded=0;whiteSpace=wrap;html=1;fillColor=#d5e8d4;fontSize=15;strokeColor=#82b366;" parent="1" vertex="1">
          <mxGeometry x="2204" y="533" width="120" height="60" as="geometry"/>
        </mxCell>
        <mxCell id="OX4fmcxfJEsmP53yHdPk-439" value="内联接口" style="rounded=0;whiteSpace=wrap;html=1;fillColor=#d5e8d4;fontSize=15;strokeColor=#82b366;" parent="1" vertex="1">
          <mxGeometry x="2204" y="613" width="120" height="60" as="geometry"/>
        </mxCell>
        <mxCell id="OX4fmcxfJEsmP53yHdPk-444" value="" style="endArrow=classic;startArrow=classic;html=1;strokeColor=#0066CC;fontSize=15;entryX=0.5;entryY=1;entryDx=0;entryDy=0;exitX=0.553;exitY=-0.017;exitDx=0;exitDy=0;exitPerimeter=0;" parent="1" source="OX4fmcxfJEsmP53yHdPk-280" target="OX4fmcxfJEsmP53yHdPk-302" edge="1">
          <mxGeometry width="50" height="50" relative="1" as="geometry">
            <mxPoint x="1560" y="450" as="sourcePoint"/>
            <mxPoint x="1610" y="400" as="targetPoint"/>
          </mxGeometry>
        </mxCell>
        <mxCell id="OX4fmcxfJEsmP53yHdPk-445" value="GRPC" style="text;html=1;resizable=0;points=[];align=center;verticalAlign=middle;labelBackgroundColor=#ffffff;fontSize=15;" parent="OX4fmcxfJEsmP53yHdPk-444" vertex="1" connectable="0">
          <mxGeometry x="0.0015" relative="1" as="geometry">
            <mxPoint as="offset"/>
          </mxGeometry>
        </mxCell>
        <mxCell id="gvailq3-4Xyu82HvKCVz-1" value="" style="endArrow=none;html=1;strokeColor=#66B2FF;entryX=0.5;entryY=1;entryDx=0;entryDy=0;exitX=0.5;exitY=0;exitDx=0;exitDy=0;" parent="1" source="OX4fmcxfJEsmP53yHdPk-294" target="OX4fmcxfJEsmP53yHdPk-282" edge="1">
          <mxGeometry width="50" height="50" relative="1" as="geometry">
            <mxPoint x="1469" y="648" as="sourcePoint"/>
            <mxPoint x="1519" y="598" as="targetPoint"/>
          </mxGeometry>
        </mxCell>
        <mxCell id="gvailq3-4Xyu82HvKCVz-2" value="" style="endArrow=none;html=1;strokeColor=#66B2FF;exitX=1;exitY=0.5;exitDx=0;exitDy=0;entryX=0;entryY=0.5;entryDx=0;entryDy=0;" parent="1" source="OX4fmcxfJEsmP53yHdPk-294" target="OX4fmcxfJEsmP53yHdPk-297" edge="1">
          <mxGeometry width="50" height="50" relative="1" as="geometry">
            <mxPoint x="1571" y="646" as="sourcePoint"/>
            <mxPoint x="1621" y="596" as="targetPoint"/>
          </mxGeometry>
        </mxCell>
        <mxCell id="gvailq3-4Xyu82HvKCVz-3" value="" style="endArrow=none;html=1;strokeColor=#66B2FF;entryX=0.5;entryY=1;entryDx=0;entryDy=0;exitX=0.5;exitY=0;exitDx=0;exitDy=0;" parent="1" source="OX4fmcxfJEsmP53yHdPk-297" target="OX4fmcxfJEsmP53yHdPk-291" edge="1">
          <mxGeometry width="50" height="50" relative="1" as="geometry">
            <mxPoint x="1568" y="642" as="sourcePoint"/>
            <mxPoint x="1618" y="592" as="targetPoint"/>
          </mxGeometry>
        </mxCell>
        <mxCell id="gvailq3-4Xyu82HvKCVz-4" value="" style="endArrow=none;html=1;strokeColor=#66B2FF;entryX=0;entryY=0.5;entryDx=0;entryDy=0;exitX=1;exitY=0.5;exitDx=0;exitDy=0;" parent="1" source="OX4fmcxfJEsmP53yHdPk-282" target="OX4fmcxfJEsmP53yHdPk-291" edge="1">
          <mxGeometry width="50" height="50" relative="1" as="geometry">
            <mxPoint x="1551" y="589" as="sourcePoint"/>
            <mxPoint x="1601" y="539" as="targetPoint"/>
          </mxGeometry>
        </mxCell>
        <mxCell id="gvailq3-4Xyu82HvKCVz-6" value="" style="group" parent="1" vertex="1" connectable="0">
          <mxGeometry x="792.5" y="170" width="349" height="213" as="geometry"/>
        </mxCell>
        <mxCell id="OX4fmcxfJEsmP53yHdPk-152" value="" style="rounded=0;whiteSpace=wrap;html=1;labelBackgroundColor=none;strokeColor=#82B366;fillColor=none;fontSize=19;align=center;dashed=1;" parent="gvailq3-4Xyu82HvKCVz-6" vertex="1">
          <mxGeometry width="349" height="213.00000000000003" as="geometry"/>
        </mxCell>
        <mxCell id="OX4fmcxfJEsmP53yHdPk-264" value="" style="group" parent="gvailq3-4Xyu82HvKCVz-6" vertex="1" connectable="0">
          <mxGeometry x="17.22337662337662" y="38.69101123595506" width="138.69350649350648" height="65.41573033707867" as="geometry"/>
        </mxCell>
        <mxCell id="OX4fmcxfJEsmP53yHdPk-261" value="" style="rounded=0;whiteSpace=wrap;html=1;fillColor=#d5e8d4;fontSize=15;align=center;strokeColor=#82b366;" parent="OX4fmcxfJEsmP53yHdPk-264" vertex="1">
          <mxGeometry width="138.69350649350648" height="65.41573033707867" as="geometry"/>
        </mxCell>
        <mxCell id="OX4fmcxfJEsmP53yHdPk-260" value="数据库服务器1" style="text;html=1;resizable=0;points=[];autosize=1;align=center;verticalAlign=top;spacingTop=-4;fontSize=15;" parent="OX4fmcxfJEsmP53yHdPk-264" vertex="1">
          <mxGeometry x="29.00779220779221" y="3.5898876404494384" width="89" height="14" as="geometry"/>
        </mxCell>
        <mxCell id="OX4fmcxfJEsmP53yHdPk-262" value="PostgreSQL" style="rounded=0;whiteSpace=wrap;html=1;fillColor=#fff2cc;fontSize=15;align=center;strokeColor=#d6b656;" parent="OX4fmcxfJEsmP53yHdPk-264" vertex="1">
          <mxGeometry x="14.050649350649351" y="22.735955056179776" width="110.59220779220777" height="33.50561797752809" as="geometry"/>
        </mxCell>
        <mxCell id="OX4fmcxfJEsmP53yHdPk-274" value="" style="endArrow=classic;startArrow=classic;html=1;strokeColor=#0066CC;fontSize=15;exitX=1;exitY=0.5;exitDx=0;exitDy=0;" parent="gvailq3-4Xyu82HvKCVz-6" source="OX4fmcxfJEsmP53yHdPk-261" edge="1">
          <mxGeometry width="50" height="50" relative="1" as="geometry">
            <mxPoint x="397.0441558441558" y="100.1179775280899" as="sourcePoint"/>
            <mxPoint x="203.0545454545454" y="71.39887640449439" as="targetPoint"/>
          </mxGeometry>
        </mxCell>
        <mxCell id="OX4fmcxfJEsmP53yHdPk-279" value="同步&lt;br&gt;复制" style="text;html=1;resizable=0;points=[];align=center;verticalAlign=middle;labelBackgroundColor=#ffffff;fontSize=12;" parent="OX4fmcxfJEsmP53yHdPk-274" vertex="1" connectable="0">
          <mxGeometry x="0.0513" relative="1" as="geometry">
            <mxPoint x="-1" as="offset"/>
          </mxGeometry>
        </mxCell>
        <mxCell id="OX4fmcxfJEsmP53yHdPk-275" value="" style="endArrow=classic;startArrow=classic;html=1;strokeColor=#0066CC;fontSize=15;entryX=0.5;entryY=1;entryDx=0;entryDy=0;exitX=0.502;exitY=-0.524;exitDx=0;exitDy=0;exitPerimeter=0;" parent="gvailq3-4Xyu82HvKCVz-6" source="OX4fmcxfJEsmP53yHdPk-271" target="OX4fmcxfJEsmP53yHdPk-261" edge="1">
          <mxGeometry width="50" height="50" relative="1" as="geometry">
            <mxPoint x="32.63376623376623" y="175.9044943820225" as="sourcePoint"/>
            <mxPoint x="77.95844155844155" y="136.0168539325843" as="targetPoint"/>
          </mxGeometry>
        </mxCell>
        <mxCell id="OX4fmcxfJEsmP53yHdPk-277" value="同步&lt;br style=&quot;font-size: 12px;&quot;&gt;复制" style="text;html=1;resizable=0;points=[];align=center;verticalAlign=middle;labelBackgroundColor=#ffffff;fontSize=12;" parent="OX4fmcxfJEsmP53yHdPk-275" vertex="1" connectable="0">
          <mxGeometry x="0.1956" y="-4" relative="1" as="geometry">
            <mxPoint x="1" y="6" as="offset"/>
          </mxGeometry>
        </mxCell>
        <mxCell id="OX4fmcxfJEsmP53yHdPk-266" value="" style="rounded=0;whiteSpace=wrap;html=1;fillColor=#d5e8d4;fontSize=15;align=center;strokeColor=#82b366;" parent="gvailq3-4Xyu82HvKCVz-6" vertex="1">
          <mxGeometry x="199.4285714285714" y="38.69101123595506" width="138.69350649350648" height="65.41573033707867" as="geometry"/>
        </mxCell>
        <mxCell id="OX4fmcxfJEsmP53yHdPk-267" value="数据库服务器2" style="text;html=1;resizable=0;points=[];autosize=1;align=center;verticalAlign=top;spacingTop=-4;fontSize=15;" parent="gvailq3-4Xyu82HvKCVz-6" vertex="1">
          <mxGeometry x="219.8246753246753" y="42.2808988764045" width="108" height="18" as="geometry"/>
        </mxCell>
        <mxCell id="OX4fmcxfJEsmP53yHdPk-268" value="PostgreSQL" style="rounded=0;whiteSpace=wrap;html=1;fillColor=#fff2cc;fontSize=15;align=center;strokeColor=#d6b656;" parent="gvailq3-4Xyu82HvKCVz-6" vertex="1">
          <mxGeometry x="213.47922077922078" y="61.426966292134836" width="110.59220779220776" height="33.50561797752809" as="geometry"/>
        </mxCell>
        <mxCell id="OX4fmcxfJEsmP53yHdPk-270" value="" style="rounded=0;whiteSpace=wrap;html=1;fillColor=#d5e8d4;fontSize=15;align=center;strokeColor=#82b366;" parent="gvailq3-4Xyu82HvKCVz-6" vertex="1">
          <mxGeometry x="105.15324675324673" y="137.21348314606743" width="138.69350649350648" height="65.41573033707867" as="geometry"/>
        </mxCell>
        <mxCell id="OX4fmcxfJEsmP53yHdPk-271" value="数据库服务器3" style="text;html=1;resizable=0;points=[];autosize=1;align=center;verticalAlign=top;spacingTop=-4;fontSize=15;" parent="gvailq3-4Xyu82HvKCVz-6" vertex="1">
          <mxGeometry x="125.54935064935064" y="140.8033707865169" width="108" height="18" as="geometry"/>
        </mxCell>
        <mxCell id="OX4fmcxfJEsmP53yHdPk-276" value="" style="endArrow=classic;startArrow=classic;html=1;strokeColor=#0066CC;fontSize=15;exitX=0.558;exitY=-0.405;exitDx=0;exitDy=0;exitPerimeter=0;entryX=0.5;entryY=1;entryDx=0;entryDy=0;" parent="gvailq3-4Xyu82HvKCVz-6" source="OX4fmcxfJEsmP53yHdPk-271" target="OX4fmcxfJEsmP53yHdPk-266" edge="1">
          <mxGeometry width="50" height="50" relative="1" as="geometry">
            <mxPoint x="284.638961038961" y="175.10674157303376" as="sourcePoint"/>
            <mxPoint x="329.96363636363634" y="135.21910112359555" as="targetPoint"/>
          </mxGeometry>
        </mxCell>
        <mxCell id="OX4fmcxfJEsmP53yHdPk-278" value="同步&lt;br&gt;复制" style="text;html=1;resizable=0;points=[];align=center;verticalAlign=middle;labelBackgroundColor=#ffffff;fontSize=12;" parent="OX4fmcxfJEsmP53yHdPk-276" vertex="1" connectable="0">
          <mxGeometry x="0.0208" y="1" relative="1" as="geometry">
            <mxPoint x="-1" as="offset"/>
          </mxGeometry>
        </mxCell>
        <mxCell id="OX4fmcxfJEsmP53yHdPk-272" value="PostgreSQL" style="rounded=0;whiteSpace=wrap;html=1;fillColor=#fff2cc;fontSize=15;align=center;strokeColor=#d6b656;" parent="gvailq3-4Xyu82HvKCVz-6" vertex="1">
          <mxGeometry x="119.20389610389608" y="159.94943820224722" width="110.59220779220776" height="33.50561797752809" as="geometry"/>
        </mxCell>
        <mxCell id="OX4fmcxfJEsmP53yHdPk-300" value="U链业务应用数据库集群(互联网区)" style="text;html=1;resizable=0;points=[];autosize=1;align=center;verticalAlign=top;spacingTop=-4;fontSize=17;" parent="gvailq3-4Xyu82HvKCVz-6" vertex="1">
          <mxGeometry x="48.22467532467532" y="9.97191011235955" width="272" height="20" as="geometry"/>
        </mxCell>
        <mxCell id="YwczhwZlPLgz6SLzk2xk-1" value="" style="group" parent="1" vertex="1" connectable="0">
          <mxGeometry x="2425.5" y="710.5" width="335.1146131805158" height="208.94366197183098" as="geometry"/>
        </mxCell>
        <mxCell id="gvailq3-4Xyu82HvKCVz-8" value="" style="group" parent="YwczhwZlPLgz6SLzk2xk-1" vertex="1" connectable="0">
          <mxGeometry width="335.1146131805158" height="208.94366197183098" as="geometry"/>
        </mxCell>
        <mxCell id="OX4fmcxfJEsmP53yHdPk-406" value="" style="rounded=0;whiteSpace=wrap;html=1;labelBackgroundColor=none;strokeColor=#82B366;fillColor=none;fontSize=19;align=center;dashed=1;" parent="gvailq3-4Xyu82HvKCVz-8" vertex="1">
          <mxGeometry width="335.11461318051573" height="208.94366197183098" as="geometry"/>
        </mxCell>
        <mxCell id="OX4fmcxfJEsmP53yHdPk-411" value="" style="group" parent="gvailq3-4Xyu82HvKCVz-8" vertex="1" connectable="0">
          <mxGeometry x="16.538123767350044" y="37.95418578889064" width="133.17541770550366" height="64.16996360183573" as="geometry"/>
        </mxCell>
        <mxCell id="OX4fmcxfJEsmP53yHdPk-412" value="" style="rounded=0;whiteSpace=wrap;html=1;fillColor=#d5e8d4;fontSize=15;align=center;strokeColor=#82b366;" parent="OX4fmcxfJEsmP53yHdPk-411" vertex="1">
          <mxGeometry width="133.17541770550366" height="64.16996360183573" as="geometry"/>
        </mxCell>
        <mxCell id="OX4fmcxfJEsmP53yHdPk-413" value="数据库服务器1" style="text;html=1;resizable=0;points=[];autosize=1;align=center;verticalAlign=top;spacingTop=-4;fontSize=15;" parent="OX4fmcxfJEsmP53yHdPk-411" vertex="1">
          <mxGeometry x="27.853682134484426" y="3.5215223927836683" width="89" height="14" as="geometry"/>
        </mxCell>
        <mxCell id="OX4fmcxfJEsmP53yHdPk-414" value="PostgreSQL" style="rounded=0;whiteSpace=wrap;html=1;fillColor=#fff2cc;fontSize=15;align=center;strokeColor=#d6b656;" parent="OX4fmcxfJEsmP53yHdPk-411" vertex="1">
          <mxGeometry x="13.491627283890894" y="22.302975154296565" width="106.19216313772188" height="32.867542332647574" as="geometry"/>
        </mxCell>
        <mxCell id="OX4fmcxfJEsmP53yHdPk-415" value="" style="endArrow=classic;startArrow=classic;html=1;strokeColor=#0066CC;fontSize=15;exitX=1;exitY=0.5;exitDx=0;exitDy=0;" parent="gvailq3-4Xyu82HvKCVz-8" source="OX4fmcxfJEsmP53yHdPk-412" edge="1">
          <mxGeometry width="50" height="50" relative="1" as="geometry">
            <mxPoint x="381.2472742157556" y="98.21134673207786" as="sourcePoint"/>
            <mxPoint x="194.97577494139114" y="70.03916758980853" as="targetPoint"/>
          </mxGeometry>
        </mxCell>
        <mxCell id="OX4fmcxfJEsmP53yHdPk-416" value="同步&lt;br&gt;复制" style="text;html=1;resizable=0;points=[];align=center;verticalAlign=middle;labelBackgroundColor=#ffffff;fontSize=12;" parent="OX4fmcxfJEsmP53yHdPk-415" vertex="1" connectable="0">
          <mxGeometry x="0.0513" relative="1" as="geometry">
            <mxPoint x="-1" as="offset"/>
          </mxGeometry>
        </mxCell>
        <mxCell id="OX4fmcxfJEsmP53yHdPk-417" value="" style="endArrow=classic;startArrow=classic;html=1;strokeColor=#0066CC;fontSize=15;entryX=0.5;entryY=1;entryDx=0;entryDy=0;exitX=0.502;exitY=-0.524;exitDx=0;exitDy=0;exitPerimeter=0;" parent="gvailq3-4Xyu82HvKCVz-8" source="OX4fmcxfJEsmP53yHdPk-425" target="OX4fmcxfJEsmP53yHdPk-412" edge="1">
          <mxGeometry width="50" height="50" relative="1" as="geometry">
            <mxPoint x="31.33539240129494" y="172.55459724639974" as="sourcePoint"/>
            <mxPoint x="74.85677073642682" y="133.42657065991452" as="targetPoint"/>
          </mxGeometry>
        </mxCell>
        <mxCell id="OX4fmcxfJEsmP53yHdPk-418" value="同步&lt;br style=&quot;font-size: 12px;&quot;&gt;复制" style="text;html=1;resizable=0;points=[];align=center;verticalAlign=middle;labelBackgroundColor=#ffffff;fontSize=12;" parent="OX4fmcxfJEsmP53yHdPk-417" vertex="1" connectable="0">
          <mxGeometry x="0.1956" y="-4" relative="1" as="geometry">
            <mxPoint x="1" y="6" as="offset"/>
          </mxGeometry>
        </mxCell>
        <mxCell id="OX4fmcxfJEsmP53yHdPk-421" value="" style="rounded=0;whiteSpace=wrap;html=1;fillColor=#d5e8d4;fontSize=15;align=center;strokeColor=#82b366;" parent="gvailq3-4Xyu82HvKCVz-8" vertex="1">
          <mxGeometry x="191.4940646745804" y="37.95418578889064" width="133.17541770550366" height="64.16996360183573" as="geometry"/>
        </mxCell>
        <mxCell id="OX4fmcxfJEsmP53yHdPk-422" value="数据库服务器2" style="text;html=1;resizable=0;points=[];autosize=1;align=center;verticalAlign=top;spacingTop=-4;fontSize=15;" parent="gvailq3-4Xyu82HvKCVz-8" vertex="1">
          <mxGeometry x="211.07868492539" y="41.47570818167432" width="108" height="18" as="geometry"/>
        </mxCell>
        <mxCell id="OX4fmcxfJEsmP53yHdPk-423" value="PostgreSQL" style="rounded=0;whiteSpace=wrap;html=1;fillColor=#fff2cc;fontSize=15;align=center;strokeColor=#d6b656;" parent="gvailq3-4Xyu82HvKCVz-8" vertex="1">
          <mxGeometry x="204.9856919584713" y="60.257160943187216" width="106.19216313772186" height="32.867542332647574" as="geometry"/>
        </mxCell>
        <mxCell id="OX4fmcxfJEsmP53yHdPk-424" value="" style="rounded=0;whiteSpace=wrap;html=1;fillColor=#d5e8d4;fontSize=15;align=center;strokeColor=#82b366;" parent="gvailq3-4Xyu82HvKCVz-8" vertex="1">
          <mxGeometry x="100.96959773750586" y="134.6004114575091" width="133.17541770550366" height="64.16996360183573" as="geometry"/>
        </mxCell>
        <mxCell id="OX4fmcxfJEsmP53yHdPk-425" value="数据库服务器3" style="text;html=1;resizable=0;points=[];autosize=1;align=center;verticalAlign=top;spacingTop=-4;fontSize=15;" parent="gvailq3-4Xyu82HvKCVz-8" vertex="1">
          <mxGeometry x="120.55421798831549" y="138.12193385029278" width="108" height="18" as="geometry"/>
        </mxCell>
        <mxCell id="OX4fmcxfJEsmP53yHdPk-419" value="" style="endArrow=classic;startArrow=classic;html=1;strokeColor=#0066CC;fontSize=15;exitX=0.558;exitY=-0.405;exitDx=0;exitDy=0;exitPerimeter=0;entryX=0.5;entryY=1;entryDx=0;entryDy=0;" parent="gvailq3-4Xyu82HvKCVz-8" source="OX4fmcxfJEsmP53yHdPk-425" target="OX4fmcxfJEsmP53yHdPk-421" edge="1">
          <mxGeometry width="50" height="50" relative="1" as="geometry">
            <mxPoint x="273.31425594462826" y="171.77203671467004" as="sourcePoint"/>
            <mxPoint x="316.8356342797606" y="132.64401012818485" as="targetPoint"/>
          </mxGeometry>
        </mxCell>
        <mxCell id="OX4fmcxfJEsmP53yHdPk-420" value="同步&lt;br&gt;复制" style="text;html=1;resizable=0;points=[];align=center;verticalAlign=middle;labelBackgroundColor=#ffffff;fontSize=12;" parent="OX4fmcxfJEsmP53yHdPk-419" vertex="1" connectable="0">
          <mxGeometry x="0.0208" y="1" relative="1" as="geometry">
            <mxPoint x="-1" as="offset"/>
          </mxGeometry>
        </mxCell>
        <mxCell id="OX4fmcxfJEsmP53yHdPk-426" value="PostgreSQL" style="rounded=0;whiteSpace=wrap;html=1;fillColor=#fff2cc;fontSize=15;align=center;strokeColor=#d6b656;" parent="gvailq3-4Xyu82HvKCVz-8" vertex="1">
          <mxGeometry x="114.46122502139679" y="156.90338661180567" width="106.19216313772186" height="32.867542332647574" as="geometry"/>
        </mxCell>
        <mxCell id="OX4fmcxfJEsmP53yHdPk-427" value="U链业务应用数据库集群(核心区)" style="text;html=1;resizable=0;points=[];autosize=1;align=center;verticalAlign=top;spacingTop=-4;fontSize=17;" parent="gvailq3-4Xyu82HvKCVz-8" vertex="1">
          <mxGeometry x="45.0328396531836" y="9.782006646621298" width="255" height="20" as="geometry"/>
        </mxCell>
        <mxCell id="YwczhwZlPLgz6SLzk2xk-23" style="edgeStyle=orthogonalEdgeStyle;rounded=0;orthogonalLoop=1;jettySize=auto;html=1;exitX=1;exitY=0.5;exitDx=0;exitDy=0;entryX=0;entryY=0.25;entryDx=0;entryDy=0;endArrow=none;endFill=0;strokeColor=#6881B3;strokeWidth=1;fontSize=15;startArrow=classic;startFill=1;" parent="1" source="YwczhwZlPLgz6SLzk2xk-8" target="YwczhwZlPLgz6SLzk2xk-22" edge="1">
          <mxGeometry relative="1" as="geometry"/>
        </mxCell>
        <mxCell id="8DgzsWet9Qr9mS-sWMTl-25" style="edgeStyle=orthogonalEdgeStyle;rounded=0;jumpStyle=arc;jumpSize=12;orthogonalLoop=1;jettySize=auto;html=1;exitX=0;exitY=0.25;exitDx=0;exitDy=0;startArrow=classic;startFill=1;endArrow=none;endFill=0;strokeColor=#D6B656;fontSize=12;" parent="1" source="YwczhwZlPLgz6SLzk2xk-8" edge="1">
          <mxGeometry relative="1" as="geometry">
            <mxPoint x="2338.5" y="519.5" as="targetPoint"/>
          </mxGeometry>
        </mxCell>
        <mxCell id="YwczhwZlPLgz6SLzk2xk-8" value="企业数据总线" style="rounded=0;whiteSpace=wrap;html=1;fillColor=#d5e8d4;align=center;strokeColor=#82b366;fontSize=15;" parent="1" vertex="1">
          <mxGeometry x="2454" y="506" width="130" height="52" as="geometry"/>
        </mxCell>
        <mxCell id="YwczhwZlPLgz6SLzk2xk-24" style="edgeStyle=orthogonalEdgeStyle;rounded=0;orthogonalLoop=1;jettySize=auto;html=1;exitX=1;exitY=0.5;exitDx=0;exitDy=0;entryX=0;entryY=0.75;entryDx=0;entryDy=0;endArrow=classic;endFill=1;strokeColor=#6881B3;strokeWidth=1;fontSize=15;" parent="1" source="YwczhwZlPLgz6SLzk2xk-9" target="YwczhwZlPLgz6SLzk2xk-22" edge="1">
          <mxGeometry relative="1" as="geometry"/>
        </mxCell>
        <mxCell id="8DgzsWet9Qr9mS-sWMTl-28" style="edgeStyle=orthogonalEdgeStyle;rounded=0;jumpStyle=arc;jumpSize=12;orthogonalLoop=1;jettySize=auto;html=1;exitX=0;exitY=0.75;exitDx=0;exitDy=0;entryX=1.06;entryY=0.584;entryDx=0;entryDy=0;entryPerimeter=0;startArrow=classic;startFill=1;endArrow=none;endFill=0;strokeColor=#67AB9F;fontSize=12;" parent="1" source="YwczhwZlPLgz6SLzk2xk-9" target="OX4fmcxfJEsmP53yHdPk-436" edge="1">
          <mxGeometry relative="1" as="geometry"/>
        </mxCell>
        <mxCell id="8DgzsWet9Qr9mS-sWMTl-63" style="edgeStyle=orthogonalEdgeStyle;rounded=0;jumpStyle=arc;jumpSize=12;orthogonalLoop=1;jettySize=auto;html=1;exitX=0;exitY=0.5;exitDx=0;exitDy=0;startArrow=classic;startFill=1;endArrow=none;endFill=0;strokeColor=#FF00FF;fontSize=12;" parent="1" source="YwczhwZlPLgz6SLzk2xk-9" edge="1">
          <mxGeometry relative="1" as="geometry">
            <mxPoint x="2338.5" y="594.5" as="targetPoint"/>
          </mxGeometry>
        </mxCell>
        <mxCell id="YwczhwZlPLgz6SLzk2xk-9" value="渠道管理平台" style="rounded=0;whiteSpace=wrap;html=1;fillColor=#d5e8d4;align=center;strokeColor=#82b366;fontSize=15;" parent="1" vertex="1">
          <mxGeometry x="2455.5" y="568.5" width="130" height="52" as="geometry"/>
        </mxCell>
        <mxCell id="YwczhwZlPLgz6SLzk2xk-21" style="edgeStyle=orthogonalEdgeStyle;rounded=0;orthogonalLoop=1;jettySize=auto;html=1;exitX=1;exitY=0.5;exitDx=0;exitDy=0;entryX=0;entryY=0.5;entryDx=0;entryDy=0;endArrow=classic;endFill=1;strokeColor=#6881B3;strokeWidth=1;fontSize=15;" parent="1" source="YwczhwZlPLgz6SLzk2xk-10" target="YwczhwZlPLgz6SLzk2xk-20" edge="1">
          <mxGeometry relative="1" as="geometry"/>
        </mxCell>
        <mxCell id="YwczhwZlPLgz6SLzk2xk-10" value="企业服务总线" style="rounded=0;whiteSpace=wrap;html=1;fillColor=#d5e8d4;align=center;strokeColor=#82b366;fontSize=15;" parent="1" vertex="1">
          <mxGeometry x="2455.5" y="632" width="130" height="52" as="geometry"/>
        </mxCell>
        <mxCell id="YwczhwZlPLgz6SLzk2xk-20" value="短信平台" style="rounded=0;whiteSpace=wrap;html=1;fillColor=#d5e8d4;align=center;strokeColor=#82b366;fontSize=15;" parent="1" vertex="1">
          <mxGeometry x="2675.5" y="632.5" width="130" height="52" as="geometry"/>
        </mxCell>
        <mxCell id="YwczhwZlPLgz6SLzk2xk-22" value="柜员管理系统" style="rounded=0;whiteSpace=wrap;html=1;fillColor=#d5e8d4;align=center;strokeColor=#82b366;fontSize=15;" parent="1" vertex="1">
          <mxGeometry x="2675.5" y="542.5" width="130" height="52" as="geometry"/>
        </mxCell>
        <mxCell id="DeNsGNGsaKPxj8K3eOul-9" style="edgeStyle=orthogonalEdgeStyle;rounded=0;orthogonalLoop=1;jettySize=auto;html=1;exitX=0;exitY=0.5;exitDx=0;exitDy=0;entryX=0.999;entryY=0.454;entryDx=0;entryDy=0;entryPerimeter=0;startArrow=none;startFill=0;endArrow=classic;endFill=1;strokeColor=#B85450;jumpStyle=arc;jumpSize=12;" parent="1" source="DeNsGNGsaKPxj8K3eOul-2" target="OX4fmcxfJEsmP53yHdPk-193" edge="1">
          <mxGeometry relative="1" as="geometry"/>
        </mxCell>
        <mxCell id="8DgzsWet9Qr9mS-sWMTl-14" style="edgeStyle=orthogonalEdgeStyle;rounded=0;jumpSize=6;orthogonalLoop=1;jettySize=auto;html=1;exitX=0.75;exitY=0;exitDx=0;exitDy=0;entryX=0.004;entryY=0.894;entryDx=0;entryDy=0;entryPerimeter=0;startArrow=classic;startFill=1;endArrow=none;endFill=0;strokeColor=#9673a6;fontSize=12;fillColor=#e1d5e7;" parent="1" source="DeNsGNGsaKPxj8K3eOul-2" target="OX4fmcxfJEsmP53yHdPk-436" edge="1">
          <mxGeometry relative="1" as="geometry"/>
        </mxCell>
        <mxCell id="8DgzsWet9Qr9mS-sWMTl-15" value="HTTP" style="text;html=1;resizable=0;points=[];align=center;verticalAlign=middle;labelBackgroundColor=#ffffff;fontSize=12;" parent="8DgzsWet9Qr9mS-sWMTl-14" vertex="1" connectable="0">
          <mxGeometry x="0.0704" y="-2" relative="1" as="geometry">
            <mxPoint x="1" as="offset"/>
          </mxGeometry>
        </mxCell>
        <mxCell id="8DgzsWet9Qr9mS-sWMTl-16" style="edgeStyle=orthogonalEdgeStyle;rounded=0;jumpSize=12;orthogonalLoop=1;jettySize=auto;html=1;exitX=0.75;exitY=1;exitDx=0;exitDy=0;entryX=0.25;entryY=1;entryDx=0;entryDy=0;startArrow=none;startFill=0;endArrow=classic;endFill=1;strokeColor=#9673a6;fontSize=12;jumpStyle=arc;fillColor=#e1d5e7;" parent="1" source="DeNsGNGsaKPxj8K3eOul-2" target="wujyxgY4NEIOlfJlrqJw-1" edge="1">
          <mxGeometry relative="1" as="geometry">
            <Array as="points">
              <mxPoint x="2108" y="1645"/>
              <mxPoint x="373" y="1645"/>
            </Array>
          </mxGeometry>
        </mxCell>
        <mxCell id="8DgzsWet9Qr9mS-sWMTl-17" value="HTTP" style="text;html=1;resizable=0;points=[];align=center;verticalAlign=middle;labelBackgroundColor=#ffffff;fontSize=12;" parent="8DgzsWet9Qr9mS-sWMTl-16" vertex="1" connectable="0">
          <mxGeometry x="0.151" y="-2" relative="1" as="geometry">
            <mxPoint y="-1" as="offset"/>
          </mxGeometry>
        </mxCell>
        <mxCell id="DeNsGNGsaKPxj8K3eOul-2" value="负载均衡器" style="rounded=0;whiteSpace=wrap;html=1;labelBackgroundColor=none;strokeColor=#6c8ebf;fillColor=#dae8fc;fontSize=19;align=center;spacingLeft=5;spacingRight=5;" parent="1" vertex="1">
          <mxGeometry x="2091" y="821" width="102" height="91" as="geometry"/>
        </mxCell>
        <mxCell id="8DgzsWet9Qr9mS-sWMTl-4" style="edgeStyle=orthogonalEdgeStyle;rounded=0;jumpSize=6;orthogonalLoop=1;jettySize=auto;html=1;exitX=0.5;exitY=1;exitDx=0;exitDy=0;entryX=0.75;entryY=1;entryDx=0;entryDy=0;startArrow=none;startFill=0;endArrow=classic;endFill=1;strokeColor=#67AB9F;fontSize=12;" parent="1" source="wujyxgY4NEIOlfJlrqJw-1" target="OX4fmcxfJEsmP53yHdPk-433" edge="1">
          <mxGeometry relative="1" as="geometry">
            <Array as="points">
              <mxPoint x="443" y="1602"/>
              <mxPoint x="2300" y="1602"/>
            </Array>
          </mxGeometry>
        </mxCell>
        <mxCell id="8DgzsWet9Qr9mS-sWMTl-5" value="HTTP" style="text;html=1;resizable=0;points=[];align=center;verticalAlign=middle;labelBackgroundColor=#ffffff;fontSize=12;" parent="8DgzsWet9Qr9mS-sWMTl-4" vertex="1" connectable="0">
          <mxGeometry x="-0.2892" relative="1" as="geometry">
            <mxPoint as="offset"/>
          </mxGeometry>
        </mxCell>
        <mxCell id="6KRlkYXWEH3RiBh5eoYi-1" style="edgeStyle=orthogonalEdgeStyle;rounded=0;orthogonalLoop=1;jettySize=auto;html=1;exitX=0.75;exitY=1;exitDx=0;exitDy=0;entryX=0.5;entryY=1;entryDx=0;entryDy=0;fillColor=#d5e8d4;strokeColor=#82b366;jumpStyle=arc;jumpSize=12;" edge="1" parent="1" source="wujyxgY4NEIOlfJlrqJw-1" target="OX4fmcxfJEsmP53yHdPk-368">
          <mxGeometry relative="1" as="geometry">
            <Array as="points">
              <mxPoint x="512" y="1514"/>
              <mxPoint x="1455" y="1514"/>
            </Array>
          </mxGeometry>
        </mxCell>
        <mxCell id="6KRlkYXWEH3RiBh5eoYi-2" value="HTTP" style="text;html=1;resizable=0;points=[];align=center;verticalAlign=middle;labelBackgroundColor=#ffffff;" vertex="1" connectable="0" parent="6KRlkYXWEH3RiBh5eoYi-1">
          <mxGeometry x="0.2783" y="3" relative="1" as="geometry">
            <mxPoint as="offset"/>
          </mxGeometry>
        </mxCell>
        <mxCell id="wujyxgY4NEIOlfJlrqJw-1" value="平台监控&lt;br style=&quot;font-size: 25px&quot;&gt;服务器集群" style="rounded=0;whiteSpace=wrap;html=1;fontSize=25;align=center;fillColor=#d5e8d4;strokeColor=#82b366;" parent="1" vertex="1">
          <mxGeometry x="302" y="951" width="281" height="510" as="geometry"/>
        </mxCell>
        <mxCell id="yIJ7yGAFd67eGruc7Kjq-2" style="edgeStyle=orthogonalEdgeStyle;rounded=0;orthogonalLoop=1;jettySize=auto;html=1;exitX=0.5;exitY=0;exitDx=0;exitDy=0;entryX=0.5;entryY=1;entryDx=0;entryDy=0;fillColor=#d5e8d4;strokeColor=#82b366;" parent="1" source="wujyxgY4NEIOlfJlrqJw-21" target="wujyxgY4NEIOlfJlrqJw-24" edge="1">
          <mxGeometry relative="1" as="geometry"/>
        </mxCell>
        <mxCell id="yIJ7yGAFd67eGruc7Kjq-3" value="JDBC" style="text;html=1;resizable=0;points=[];align=center;verticalAlign=middle;labelBackgroundColor=#ffffff;" parent="yIJ7yGAFd67eGruc7Kjq-2" vertex="1" connectable="0">
          <mxGeometry x="-0.0303" relative="1" as="geometry">
            <mxPoint as="offset"/>
          </mxGeometry>
        </mxCell>
        <mxCell id="yIJ7yGAFd67eGruc7Kjq-4" style="edgeStyle=orthogonalEdgeStyle;rounded=0;orthogonalLoop=1;jettySize=auto;html=1;exitX=0.5;exitY=1;exitDx=0;exitDy=0;entryX=0.25;entryY=1;entryDx=0;entryDy=0;fillColor=#d5e8d4;strokeColor=#82b366;jumpStyle=arc;jumpSize=12;" parent="1" source="wujyxgY4NEIOlfJlrqJw-21" target="OX4fmcxfJEsmP53yHdPk-433" edge="1">
          <mxGeometry relative="1" as="geometry">
            <Array as="points">
              <mxPoint x="878" y="1557"/>
              <mxPoint x="2228" y="1557"/>
            </Array>
          </mxGeometry>
        </mxCell>
        <mxCell id="yIJ7yGAFd67eGruc7Kjq-5" value="HTTP" style="text;html=1;resizable=0;points=[];align=center;verticalAlign=middle;labelBackgroundColor=#ffffff;" parent="yIJ7yGAFd67eGruc7Kjq-4" vertex="1" connectable="0">
          <mxGeometry x="-0.4166" y="2" relative="1" as="geometry">
            <mxPoint as="offset"/>
          </mxGeometry>
        </mxCell>
        <mxCell id="wujyxgY4NEIOlfJlrqJw-21" value="" style="rounded=0;whiteSpace=wrap;html=1;fontSize=10;align=center;strokeColor=#82B366;dashed=1;" parent="1" vertex="1">
          <mxGeometry x="702" y="1232" width="349" height="213" as="geometry"/>
        </mxCell>
        <mxCell id="wujyxgY4NEIOlfJlrqJw-24" value="" style="rounded=0;whiteSpace=wrap;html=1;labelBackgroundColor=none;strokeColor=#82B366;fillColor=none;fontSize=19;align=center;dashed=1;" parent="1" vertex="1">
          <mxGeometry x="702" y="965.5" width="349" height="213.00000000000003" as="geometry"/>
        </mxCell>
        <mxCell id="wujyxgY4NEIOlfJlrqJw-25" value="" style="group" parent="1" vertex="1" connectable="0">
          <mxGeometry x="719.2233766233766" y="1004.1910112359551" width="138.69350649350648" height="65.41573033707867" as="geometry"/>
        </mxCell>
        <mxCell id="wujyxgY4NEIOlfJlrqJw-26" value="" style="rounded=0;whiteSpace=wrap;html=1;fillColor=#d5e8d4;fontSize=15;align=center;strokeColor=#82b366;" parent="wujyxgY4NEIOlfJlrqJw-25" vertex="1">
          <mxGeometry width="138.69350649350648" height="65.41573033707867" as="geometry"/>
        </mxCell>
        <mxCell id="wujyxgY4NEIOlfJlrqJw-27" value="数据库服务器1" style="text;html=1;resizable=0;points=[];autosize=1;align=center;verticalAlign=top;spacingTop=-4;fontSize=15;" parent="wujyxgY4NEIOlfJlrqJw-25" vertex="1">
          <mxGeometry x="29.00779220779221" y="3.5898876404494384" width="89" height="14" as="geometry"/>
        </mxCell>
        <mxCell id="wujyxgY4NEIOlfJlrqJw-28" value="PostgreSQL" style="rounded=0;whiteSpace=wrap;html=1;fillColor=#fff2cc;fontSize=15;align=center;strokeColor=#d6b656;" parent="wujyxgY4NEIOlfJlrqJw-25" vertex="1">
          <mxGeometry x="14.050649350649351" y="22.735955056179776" width="110.59220779220777" height="33.50561797752809" as="geometry"/>
        </mxCell>
        <mxCell id="wujyxgY4NEIOlfJlrqJw-29" value="" style="endArrow=classic;startArrow=classic;html=1;strokeColor=#0066CC;fontSize=15;exitX=1;exitY=0.5;exitDx=0;exitDy=0;" parent="1" source="wujyxgY4NEIOlfJlrqJw-26" edge="1">
          <mxGeometry width="50" height="50" relative="1" as="geometry">
            <mxPoint x="1099.0441558441557" y="1065.6179775280898" as="sourcePoint"/>
            <mxPoint x="905.0545454545454" y="1036.8988764044943" as="targetPoint"/>
          </mxGeometry>
        </mxCell>
        <mxCell id="wujyxgY4NEIOlfJlrqJw-30" value="同步&lt;br&gt;复制" style="text;html=1;resizable=0;points=[];align=center;verticalAlign=middle;labelBackgroundColor=#ffffff;fontSize=12;" parent="wujyxgY4NEIOlfJlrqJw-29" vertex="1" connectable="0">
          <mxGeometry x="0.0513" relative="1" as="geometry">
            <mxPoint x="-1" as="offset"/>
          </mxGeometry>
        </mxCell>
        <mxCell id="wujyxgY4NEIOlfJlrqJw-31" value="" style="endArrow=classic;startArrow=classic;html=1;strokeColor=#0066CC;fontSize=15;entryX=0.5;entryY=1;entryDx=0;entryDy=0;exitX=0.502;exitY=-0.524;exitDx=0;exitDy=0;exitPerimeter=0;" parent="1" source="wujyxgY4NEIOlfJlrqJw-37" target="wujyxgY4NEIOlfJlrqJw-26" edge="1">
          <mxGeometry width="50" height="50" relative="1" as="geometry">
            <mxPoint x="734.6337662337662" y="1141.4044943820224" as="sourcePoint"/>
            <mxPoint x="779.9584415584416" y="1101.5168539325844" as="targetPoint"/>
          </mxGeometry>
        </mxCell>
        <mxCell id="wujyxgY4NEIOlfJlrqJw-32" value="同步&lt;br style=&quot;font-size: 12px;&quot;&gt;复制" style="text;html=1;resizable=0;points=[];align=center;verticalAlign=middle;labelBackgroundColor=#ffffff;fontSize=12;" parent="wujyxgY4NEIOlfJlrqJw-31" vertex="1" connectable="0">
          <mxGeometry x="0.1956" y="-4" relative="1" as="geometry">
            <mxPoint x="1" y="6" as="offset"/>
          </mxGeometry>
        </mxCell>
        <mxCell id="wujyxgY4NEIOlfJlrqJw-33" value="" style="rounded=0;whiteSpace=wrap;html=1;fillColor=#d5e8d4;fontSize=15;align=center;strokeColor=#82b366;" parent="1" vertex="1">
          <mxGeometry x="901.4285714285713" y="1004.1910112359551" width="138.69350649350648" height="65.41573033707867" as="geometry"/>
        </mxCell>
        <mxCell id="wujyxgY4NEIOlfJlrqJw-34" value="数据库服务器2" style="text;html=1;resizable=0;points=[];autosize=1;align=center;verticalAlign=top;spacingTop=-4;fontSize=15;" parent="1" vertex="1">
          <mxGeometry x="921.8246753246754" y="1007.7808988764045" width="108" height="18" as="geometry"/>
        </mxCell>
        <mxCell id="wujyxgY4NEIOlfJlrqJw-35" value="PostgreSQL" style="rounded=0;whiteSpace=wrap;html=1;fillColor=#fff2cc;fontSize=15;align=center;strokeColor=#d6b656;" parent="1" vertex="1">
          <mxGeometry x="915.4792207792208" y="1026.926966292135" width="110.59220779220776" height="33.50561797752809" as="geometry"/>
        </mxCell>
        <mxCell id="wujyxgY4NEIOlfJlrqJw-36" value="" style="rounded=0;whiteSpace=wrap;html=1;fillColor=#d5e8d4;fontSize=15;align=center;strokeColor=#82b366;" parent="1" vertex="1">
          <mxGeometry x="807.1532467532468" y="1102.7134831460673" width="138.69350649350648" height="65.41573033707867" as="geometry"/>
        </mxCell>
        <mxCell id="wujyxgY4NEIOlfJlrqJw-37" value="数据库服务器3" style="text;html=1;resizable=0;points=[];autosize=1;align=center;verticalAlign=top;spacingTop=-4;fontSize=15;" parent="1" vertex="1">
          <mxGeometry x="827.5493506493507" y="1106.303370786517" width="108" height="18" as="geometry"/>
        </mxCell>
        <mxCell id="wujyxgY4NEIOlfJlrqJw-38" value="" style="endArrow=classic;startArrow=classic;html=1;strokeColor=#0066CC;fontSize=15;exitX=0.558;exitY=-0.405;exitDx=0;exitDy=0;exitPerimeter=0;entryX=0.5;entryY=1;entryDx=0;entryDy=0;" parent="1" source="wujyxgY4NEIOlfJlrqJw-37" target="wujyxgY4NEIOlfJlrqJw-33" edge="1">
          <mxGeometry width="50" height="50" relative="1" as="geometry">
            <mxPoint x="986.638961038961" y="1140.6067415730338" as="sourcePoint"/>
            <mxPoint x="1031.9636363636364" y="1100.7191011235955" as="targetPoint"/>
          </mxGeometry>
        </mxCell>
        <mxCell id="wujyxgY4NEIOlfJlrqJw-39" value="同步&lt;br&gt;复制" style="text;html=1;resizable=0;points=[];align=center;verticalAlign=middle;labelBackgroundColor=#ffffff;fontSize=12;" parent="wujyxgY4NEIOlfJlrqJw-38" vertex="1" connectable="0">
          <mxGeometry x="0.0208" y="1" relative="1" as="geometry">
            <mxPoint x="-1" as="offset"/>
          </mxGeometry>
        </mxCell>
        <mxCell id="wujyxgY4NEIOlfJlrqJw-40" value="PostgreSQL" style="rounded=0;whiteSpace=wrap;html=1;fillColor=#fff2cc;fontSize=15;align=center;strokeColor=#d6b656;" parent="1" vertex="1">
          <mxGeometry x="821.2038961038961" y="1125.4494382022472" width="110.59220779220776" height="33.50561797752809" as="geometry"/>
        </mxCell>
        <mxCell id="wujyxgY4NEIOlfJlrqJw-41" value="平台监控数据库(互联网区)" style="text;html=1;resizable=0;points=[];autosize=1;align=center;verticalAlign=top;spacingTop=-4;fontSize=17;" parent="1" vertex="1">
          <mxGeometry x="782.2246753246753" y="975.4719101123596" width="208" height="20" as="geometry"/>
        </mxCell>
        <mxCell id="wujyxgY4NEIOlfJlrqJw-42" value="平台监控服务" style="text;html=1;resizable=0;points=[];autosize=1;align=left;verticalAlign=top;spacingTop=-4;fontSize=17;" parent="1" vertex="1">
          <mxGeometry x="842.5" y="1246" width="112" height="20" as="geometry"/>
        </mxCell>
        <mxCell id="wujyxgY4NEIOlfJlrqJw-43" value="redis&lt;br&gt;jstorm&lt;br&gt;MQ" style="rounded=0;whiteSpace=wrap;html=1;fillColor=#d5e8d4;fontSize=20;align=center;strokeColor=#82b366;" parent="1" vertex="1">
          <mxGeometry x="719" y="1289" width="84" height="130" as="geometry"/>
        </mxCell>
        <mxCell id="wujyxgY4NEIOlfJlrqJw-59" style="edgeStyle=orthogonalEdgeStyle;rounded=0;orthogonalLoop=1;jettySize=auto;html=1;exitX=0;exitY=0.5;exitDx=0;exitDy=0;entryX=1;entryY=0.5;entryDx=0;entryDy=0;startArrow=classic;startFill=1;strokeWidth=2;fontSize=15;fillColor=#d5e8d4;strokeColor=#82b366;" parent="1" source="wujyxgY4NEIOlfJlrqJw-45" target="wujyxgY4NEIOlfJlrqJw-46" edge="1">
          <mxGeometry relative="1" as="geometry"/>
        </mxCell>
        <mxCell id="wujyxgY4NEIOlfJlrqJw-45" value="redis&lt;br&gt;jstorm&lt;br&gt;MQ" style="rounded=0;whiteSpace=wrap;html=1;fillColor=#d5e8d4;fontSize=20;align=center;strokeColor=#82b366;" parent="1" vertex="1">
          <mxGeometry x="951" y="1289" width="84" height="130" as="geometry"/>
        </mxCell>
        <mxCell id="wujyxgY4NEIOlfJlrqJw-60" style="edgeStyle=orthogonalEdgeStyle;rounded=0;orthogonalLoop=1;jettySize=auto;html=1;exitX=0;exitY=0.5;exitDx=0;exitDy=0;entryX=1;entryY=0.5;entryDx=0;entryDy=0;startArrow=classic;startFill=1;strokeWidth=2;fontSize=15;fillColor=#d5e8d4;strokeColor=#82b366;" parent="1" source="wujyxgY4NEIOlfJlrqJw-46" target="wujyxgY4NEIOlfJlrqJw-43" edge="1">
          <mxGeometry relative="1" as="geometry"/>
        </mxCell>
        <mxCell id="wujyxgY4NEIOlfJlrqJw-46" value="redis&lt;br&gt;jstorm&lt;br&gt;MQ" style="rounded=0;whiteSpace=wrap;html=1;fillColor=#d5e8d4;fontSize=20;align=center;strokeColor=#82b366;" parent="1" vertex="1">
          <mxGeometry x="835" y="1289" width="84" height="130" as="geometry"/>
        </mxCell>
        <mxCell id="wujyxgY4NEIOlfJlrqJw-50" value="" style="endArrow=classic;html=1;strokeWidth=2;fontSize=15;entryX=0;entryY=0.5;entryDx=0;entryDy=0;fillColor=#d5e8d4;strokeColor=#82b366;" parent="1" target="wujyxgY4NEIOlfJlrqJw-21" edge="1">
          <mxGeometry width="50" height="50" relative="1" as="geometry">
            <mxPoint x="587" y="1339" as="sourcePoint"/>
            <mxPoint x="630" y="1012" as="targetPoint"/>
          </mxGeometry>
        </mxCell>
        <mxCell id="wujyxgY4NEIOlfJlrqJw-51" value="HTTP" style="text;html=1;resizable=0;points=[];align=center;verticalAlign=middle;labelBackgroundColor=#ffffff;fontSize=15;" parent="wujyxgY4NEIOlfJlrqJw-50" vertex="1" connectable="0">
          <mxGeometry x="-0.1924" y="3" relative="1" as="geometry">
            <mxPoint as="offset"/>
          </mxGeometry>
        </mxCell>
        <mxCell id="wujyxgY4NEIOlfJlrqJw-52" value="" style="endArrow=classic;html=1;strokeWidth=2;fontSize=15;entryX=0;entryY=0.5;entryDx=0;entryDy=0;fillColor=#d5e8d4;strokeColor=#82b366;startArrow=classic;startFill=1;" parent="1" target="wujyxgY4NEIOlfJlrqJw-24" edge="1">
          <mxGeometry width="50" height="50" relative="1" as="geometry">
            <mxPoint x="583" y="1072" as="sourcePoint"/>
            <mxPoint x="623" y="1347" as="targetPoint"/>
          </mxGeometry>
        </mxCell>
        <mxCell id="wujyxgY4NEIOlfJlrqJw-53" value="JDBC" style="text;html=1;resizable=0;points=[];align=center;verticalAlign=middle;labelBackgroundColor=#ffffff;fontSize=15;" parent="wujyxgY4NEIOlfJlrqJw-52" vertex="1" connectable="0">
          <mxGeometry x="-0.0976" y="3" relative="1" as="geometry">
            <mxPoint as="offset"/>
          </mxGeometry>
        </mxCell>
        <mxCell id="wujyxgY4NEIOlfJlrqJw-56" style="edgeStyle=orthogonalEdgeStyle;rounded=0;orthogonalLoop=1;jettySize=auto;html=1;exitX=0.5;exitY=0;exitDx=0;exitDy=0;entryX=0.5;entryY=1;entryDx=0;entryDy=0;endArrow=classic;endFill=1;strokeColor=#82b366;strokeWidth=1;fontSize=15;fillColor=#d5e8d4;" parent="1" edge="1">
          <mxGeometry relative="1" as="geometry">
            <mxPoint x="2253" y="1005.5" as="sourcePoint"/>
            <mxPoint x="2253" y="693" as="targetPoint"/>
          </mxGeometry>
        </mxCell>
        <mxCell id="wujyxgY4NEIOlfJlrqJw-57" value="HTTP" style="text;html=1;resizable=0;points=[];align=center;verticalAlign=middle;labelBackgroundColor=#ffffff;fontSize=15;" parent="wujyxgY4NEIOlfJlrqJw-56" vertex="1" connectable="0">
          <mxGeometry x="0.5385" y="-2" relative="1" as="geometry">
            <mxPoint y="20" as="offset"/>
          </mxGeometry>
        </mxCell>
        <mxCell id="wujyxgY4NEIOlfJlrqJw-58" value="" style="endArrow=classic;html=1;strokeWidth=2;fontSize=15;entryX=0;entryY=0.75;entryDx=0;entryDy=0;fillColor=#d5e8d4;strokeColor=#82b366;" parent="1" target="YwczhwZlPLgz6SLzk2xk-10" edge="1">
          <mxGeometry width="50" height="50" relative="1" as="geometry">
            <mxPoint x="2336" y="671" as="sourcePoint"/>
            <mxPoint x="2399" y="670" as="targetPoint"/>
          </mxGeometry>
        </mxCell>
        <mxCell id="8DgzsWet9Qr9mS-sWMTl-6" style="edgeStyle=orthogonalEdgeStyle;rounded=0;orthogonalLoop=1;jettySize=auto;html=1;exitX=0.14;exitY=0.65;exitDx=0;exitDy=0;exitPerimeter=0;endArrow=classic;endFill=1;strokeColor=#9673a6;strokeWidth=1;fontSize=15;fillColor=#e1d5e7;" parent="1" edge="1">
          <mxGeometry relative="1" as="geometry">
            <mxPoint x="2335" y="1392.9999999999995" as="targetPoint"/>
            <mxPoint x="2959" y="1392.9999999999995" as="sourcePoint"/>
          </mxGeometry>
        </mxCell>
        <mxCell id="8DgzsWet9Qr9mS-sWMTl-7" value="HTTP" style="text;html=1;resizable=0;points=[];align=center;verticalAlign=middle;labelBackgroundColor=#ffffff;fontSize=15;" parent="8DgzsWet9Qr9mS-sWMTl-6" vertex="1" connectable="0">
          <mxGeometry x="0.125" y="-4" relative="1" as="geometry">
            <mxPoint x="1" as="offset"/>
          </mxGeometry>
        </mxCell>
        <mxCell id="8DgzsWet9Qr9mS-sWMTl-8" value="" style="verticalLabelPosition=bottom;html=1;verticalAlign=top;align=center;strokeColor=none;fillColor=#00BEF2;shape=mxgraph.azure.user;fontSize=15;" parent="1" vertex="1">
          <mxGeometry x="2938" y="1372" width="50" height="50" as="geometry"/>
        </mxCell>
        <mxCell id="8DgzsWet9Qr9mS-sWMTl-9" value="" style="points=[];aspect=fixed;html=1;align=center;shadow=0;dashed=0;image;image=img/lib/allied_telesis/computer_and_terminals/Personal_Computer.svg;fillColor=#FFFFFF;fontSize=15;" parent="1" vertex="1">
          <mxGeometry x="3003.5" y="1375.5" width="36" height="48.82" as="geometry"/>
        </mxCell>
        <mxCell id="8DgzsWet9Qr9mS-sWMTl-10" value="平台监控用户" style="text;html=1;resizable=0;points=[];autosize=1;align=center;verticalAlign=top;spacingTop=-4;fontSize=15;" parent="1" vertex="1">
          <mxGeometry x="2917.5" y="1424" width="100" height="18" as="geometry"/>
        </mxCell>
        <mxCell id="8DgzsWet9Qr9mS-sWMTl-11" style="edgeStyle=orthogonalEdgeStyle;rounded=0;orthogonalLoop=1;jettySize=auto;html=1;exitX=0.5;exitY=0;exitDx=0;exitDy=0;entryX=0.5;entryY=1;entryDx=0;entryDy=0;endArrow=classic;endFill=1;strokeColor=#9673a6;strokeWidth=1;fontSize=15;fillColor=#e1d5e7;" parent="1" edge="1">
          <mxGeometry relative="1" as="geometry">
            <mxPoint x="2273" y="1005.5" as="sourcePoint"/>
            <mxPoint x="2273" y="693" as="targetPoint"/>
          </mxGeometry>
        </mxCell>
        <mxCell id="8DgzsWet9Qr9mS-sWMTl-12" value="HTTP" style="text;html=1;resizable=0;points=[];align=center;verticalAlign=middle;labelBackgroundColor=#ffffff;fontSize=15;" parent="8DgzsWet9Qr9mS-sWMTl-11" vertex="1" connectable="0">
          <mxGeometry x="0.5385" y="-2" relative="1" as="geometry">
            <mxPoint x="-7.5" y="112.5" as="offset"/>
          </mxGeometry>
        </mxCell>
        <mxCell id="8DgzsWet9Qr9mS-sWMTl-21" style="edgeStyle=orthogonalEdgeStyle;rounded=0;jumpStyle=arc;jumpSize=12;orthogonalLoop=1;jettySize=auto;html=1;exitX=0;exitY=0.5;exitDx=0;exitDy=0;entryX=1;entryY=0.5;entryDx=0;entryDy=0;startArrow=none;startFill=0;endArrow=classic;endFill=1;strokeColor=#67AB9F;fontSize=12;" parent="1" source="8DgzsWet9Qr9mS-sWMTl-20" target="OX4fmcxfJEsmP53yHdPk-368" edge="1">
          <mxGeometry relative="1" as="geometry"/>
        </mxCell>
        <mxCell id="8DgzsWet9Qr9mS-sWMTl-22" value="JDBC" style="text;html=1;resizable=0;points=[];align=center;verticalAlign=middle;labelBackgroundColor=#ffffff;fontSize=12;" parent="8DgzsWet9Qr9mS-sWMTl-21" vertex="1" connectable="0">
          <mxGeometry x="-0.3103" relative="1" as="geometry">
            <mxPoint as="offset"/>
          </mxGeometry>
        </mxCell>
        <mxCell id="8DgzsWet9Qr9mS-sWMTl-23" style="edgeStyle=orthogonalEdgeStyle;rounded=0;jumpStyle=arc;jumpSize=12;orthogonalLoop=1;jettySize=auto;html=1;exitX=1;exitY=0.25;exitDx=0;exitDy=0;startArrow=none;startFill=0;endArrow=classic;endFill=1;strokeColor=#D6B656;fontSize=12;entryX=0.004;entryY=0.657;entryDx=0;entryDy=0;entryPerimeter=0;" parent="1" source="8DgzsWet9Qr9mS-sWMTl-20" target="OX4fmcxfJEsmP53yHdPk-433" edge="1">
          <mxGeometry relative="1" as="geometry">
            <mxPoint x="2030" y="1282" as="targetPoint"/>
          </mxGeometry>
        </mxCell>
        <mxCell id="8DgzsWet9Qr9mS-sWMTl-24" value="HTTP" style="text;html=1;resizable=0;points=[];align=center;verticalAlign=middle;labelBackgroundColor=#ffffff;fontSize=12;" parent="8DgzsWet9Qr9mS-sWMTl-23" vertex="1" connectable="0">
          <mxGeometry x="-0.2157" y="-2" relative="1" as="geometry">
            <mxPoint x="84" y="1" as="offset"/>
          </mxGeometry>
        </mxCell>
        <mxCell id="6KRlkYXWEH3RiBh5eoYi-5" style="edgeStyle=orthogonalEdgeStyle;rounded=0;jumpStyle=arc;jumpSize=12;orthogonalLoop=1;jettySize=auto;html=1;exitX=0.5;exitY=1;exitDx=0;exitDy=0;entryX=1;entryY=0.75;entryDx=0;entryDy=0;fillColor=#d5e8d4;strokeColor=#82b366;" edge="1" parent="1" source="8DgzsWet9Qr9mS-sWMTl-20" target="wujyxgY4NEIOlfJlrqJw-45">
          <mxGeometry relative="1" as="geometry">
            <Array as="points">
              <mxPoint x="1812" y="1535"/>
              <mxPoint x="1177" y="1535"/>
              <mxPoint x="1177" y="1387"/>
            </Array>
          </mxGeometry>
        </mxCell>
        <mxCell id="6KRlkYXWEH3RiBh5eoYi-6" value="HTTP" style="text;html=1;resizable=0;points=[];align=center;verticalAlign=middle;labelBackgroundColor=#ffffff;" vertex="1" connectable="0" parent="6KRlkYXWEH3RiBh5eoYi-5">
          <mxGeometry x="0.8537" y="3" relative="1" as="geometry">
            <mxPoint as="offset"/>
          </mxGeometry>
        </mxCell>
        <mxCell id="8DgzsWet9Qr9mS-sWMTl-20" value="" style="shape=ext;double=1;rounded=0;whiteSpace=wrap;html=1;strokeColor=#6c8ebf;fontSize=19;align=center;fillColor=#dae8fc;" parent="1" vertex="1">
          <mxGeometry x="1720.5" y="1214" width="183" height="267" as="geometry"/>
        </mxCell>
        <mxCell id="8DgzsWet9Qr9mS-sWMTl-48" value="" style="group" parent="1" vertex="1" connectable="0">
          <mxGeometry x="39" y="232" width="193" height="267" as="geometry"/>
        </mxCell>
        <mxCell id="8DgzsWet9Qr9mS-sWMTl-29" value="" style="rounded=0;whiteSpace=wrap;html=1;labelBackgroundColor=none;strokeColor=#82B366;fillColor=none;fontSize=19;align=center;dashed=1;" parent="8DgzsWet9Qr9mS-sWMTl-48" vertex="1">
          <mxGeometry width="193" height="267" as="geometry"/>
        </mxCell>
        <mxCell id="8DgzsWet9Qr9mS-sWMTl-30" value="" style="group;fillColor=#60a917;strokeColor=#2D7600;fontColor=#ffffff;" parent="8DgzsWet9Qr9mS-sWMTl-48" vertex="1" connectable="0">
          <mxGeometry x="19" y="51.5" width="153" height="82" as="geometry"/>
        </mxCell>
        <mxCell id="8DgzsWet9Qr9mS-sWMTl-34" value="" style="rounded=0;whiteSpace=wrap;html=1;fillColor=#d5e8d4;fontSize=15;align=center;strokeColor=#82b366;" parent="8DgzsWet9Qr9mS-sWMTl-48" vertex="1">
          <mxGeometry x="19" y="168" width="153" height="82" as="geometry"/>
        </mxCell>
        <mxCell id="8DgzsWet9Qr9mS-sWMTl-35" value="账本服务器2" style="text;html=1;resizable=0;points=[];autosize=1;align=center;verticalAlign=top;spacingTop=-4;fontSize=15;" parent="8DgzsWet9Qr9mS-sWMTl-48" vertex="1">
          <mxGeometry x="41.5" y="172.5" width="93" height="18" as="geometry"/>
        </mxCell>
        <mxCell id="8DgzsWet9Qr9mS-sWMTl-36" value="智能合约" style="rounded=0;whiteSpace=wrap;html=1;fillColor=#60a917;fontSize=15;align=center;strokeColor=#2D7600;fontColor=#ffffff;" parent="8DgzsWet9Qr9mS-sWMTl-48" vertex="1">
          <mxGeometry x="34.5" y="196.5" width="122" height="42" as="geometry"/>
        </mxCell>
        <mxCell id="8DgzsWet9Qr9mS-sWMTl-40" value="建行节点" style="text;html=1;resizable=0;points=[];autosize=1;align=center;verticalAlign=top;spacingTop=-4;fontSize=17;" parent="8DgzsWet9Qr9mS-sWMTl-48" vertex="1">
          <mxGeometry x="53.5" y="12" width="78" height="20" as="geometry"/>
        </mxCell>
        <mxCell id="8DgzsWet9Qr9mS-sWMTl-41" value="" style="rounded=0;whiteSpace=wrap;html=1;fillColor=#d5e8d4;fontSize=15;align=center;strokeColor=#82b366;" parent="8DgzsWet9Qr9mS-sWMTl-48" vertex="1">
          <mxGeometry x="19" y="51.5" width="153" height="82" as="geometry"/>
        </mxCell>
        <mxCell id="8DgzsWet9Qr9mS-sWMTl-42" value="账本服务器1" style="text;html=1;resizable=0;points=[];autosize=1;align=center;verticalAlign=top;spacingTop=-4;fontSize=15;" parent="8DgzsWet9Qr9mS-sWMTl-48" vertex="1">
          <mxGeometry x="51" y="56" width="93" height="18" as="geometry"/>
        </mxCell>
        <mxCell id="8DgzsWet9Qr9mS-sWMTl-43" value="智能合约" style="rounded=0;whiteSpace=wrap;html=1;fillColor=#60a917;fontSize=15;align=center;strokeColor=#2D7600;fontColor=#ffffff;" parent="8DgzsWet9Qr9mS-sWMTl-48" vertex="1">
          <mxGeometry x="34.5" y="80" width="122" height="42" as="geometry"/>
        </mxCell>
        <mxCell id="8DgzsWet9Qr9mS-sWMTl-44" value="" style="endArrow=none;html=1;strokeColor=#66B2FF;entryX=0.5;entryY=1;entryDx=0;entryDy=0;exitX=0.5;exitY=0;exitDx=0;exitDy=0;" parent="8DgzsWet9Qr9mS-sWMTl-48" source="8DgzsWet9Qr9mS-sWMTl-34" target="8DgzsWet9Qr9mS-sWMTl-41" edge="1">
          <mxGeometry width="50" height="50" relative="1" as="geometry">
            <mxPoint x="76.5" y="195.5" as="sourcePoint"/>
            <mxPoint x="126.5" y="145.5" as="targetPoint"/>
          </mxGeometry>
        </mxCell>
        <mxCell id="8DgzsWet9Qr9mS-sWMTl-50" style="edgeStyle=orthogonalEdgeStyle;rounded=0;jumpStyle=arc;jumpSize=12;orthogonalLoop=1;jettySize=auto;html=1;exitX=1;exitY=0.75;exitDx=0;exitDy=0;entryX=0;entryY=0.362;entryDx=0;entryDy=0;entryPerimeter=0;startArrow=none;startFill=0;endArrow=classic;endFill=1;strokeColor=#00CCCC;fontSize=12;" parent="1" source="8DgzsWet9Qr9mS-sWMTl-29" target="OX4fmcxfJEsmP53yHdPk-129" edge="1">
          <mxGeometry relative="1" as="geometry"/>
        </mxCell>
        <mxCell id="8DgzsWet9Qr9mS-sWMTl-52" value="GRPC" style="text;html=1;resizable=0;points=[];align=center;verticalAlign=middle;labelBackgroundColor=#ffffff;fontSize=12;" parent="8DgzsWet9Qr9mS-sWMTl-50" vertex="1" connectable="0">
          <mxGeometry x="-0.1613" y="3" relative="1" as="geometry">
            <mxPoint y="1" as="offset"/>
          </mxGeometry>
        </mxCell>
        <mxCell id="3IjrNCw-eFAvfJicf0EX-1" value="数据集成服务器" style="text;html=1;resizable=0;points=[];autosize=1;align=center;verticalAlign=top;spacingTop=-4;fontSize=19;" parent="1" vertex="1">
          <mxGeometry x="1765.5" y="1229.5" width="94" height="14" as="geometry"/>
        </mxCell>
        <mxCell id="3IjrNCw-eFAvfJicf0EX-2" value="数据集成服务1" style="rounded=0;whiteSpace=wrap;html=1;fontSize=19;align=center;fillColor=#66B2FF;strokeColor=#6c8ebf;" parent="1" vertex="1">
          <mxGeometry x="1743.5" y="1287.5" width="138" height="72" as="geometry"/>
        </mxCell>
        <mxCell id="3IjrNCw-eFAvfJicf0EX-3" value="数据集成服务2" style="rounded=0;whiteSpace=wrap;html=1;fontSize=19;align=center;fillColor=#66B2FF;strokeColor=#6c8ebf;" parent="1" vertex="1">
          <mxGeometry x="1743.5" y="1384" width="138" height="72" as="geometry"/>
        </mxCell>
        <mxCell id="3IjrNCw-eFAvfJicf0EX-9" style="edgeStyle=orthogonalEdgeStyle;rounded=0;orthogonalLoop=1;jettySize=auto;html=1;exitX=0;exitY=0.5;exitDx=0;exitDy=0;entryX=1;entryY=0.5;entryDx=0;entryDy=0;fontSize=15;strokeColor=#0066CC;" parent="1" source="3IjrNCw-eFAvfJicf0EX-4" target="OX4fmcxfJEsmP53yHdPk-280" edge="1">
          <mxGeometry relative="1" as="geometry"/>
        </mxCell>
        <mxCell id="3IjrNCw-eFAvfJicf0EX-13" value="GRPC" style="text;html=1;resizable=0;points=[];align=center;verticalAlign=middle;labelBackgroundColor=#ffffff;fontSize=15;" parent="3IjrNCw-eFAvfJicf0EX-9" vertex="1" connectable="0">
          <mxGeometry x="0.0571" y="-2" relative="1" as="geometry">
            <mxPoint y="-1" as="offset"/>
          </mxGeometry>
        </mxCell>
        <mxCell id="3IjrNCw-eFAvfJicf0EX-11" style="edgeStyle=orthogonalEdgeStyle;rounded=0;orthogonalLoop=1;jettySize=auto;html=1;exitX=0.5;exitY=0;exitDx=0;exitDy=0;entryX=1;entryY=0.5;entryDx=0;entryDy=0;fontSize=15;strokeColor=#0066CC;" parent="1" source="3IjrNCw-eFAvfJicf0EX-4" target="OX4fmcxfJEsmP53yHdPk-302" edge="1">
          <mxGeometry relative="1" as="geometry"/>
        </mxCell>
        <mxCell id="3IjrNCw-eFAvfJicf0EX-14" value="GRPC" style="text;html=1;resizable=0;points=[];align=center;verticalAlign=middle;labelBackgroundColor=#ffffff;fontSize=15;" parent="3IjrNCw-eFAvfJicf0EX-11" vertex="1" connectable="0">
          <mxGeometry x="-0.3671" relative="1" as="geometry">
            <mxPoint as="offset"/>
          </mxGeometry>
        </mxCell>
        <mxCell id="3IjrNCw-eFAvfJicf0EX-4" value="" style="rounded=0;whiteSpace=wrap;html=1;labelBackgroundColor=none;strokeColor=#82b366;fillColor=#FFFFFF;fontSize=19;align=center;dashed=1;" parent="1" vertex="1">
          <mxGeometry x="1953" y="485" width="142" height="202" as="geometry"/>
        </mxCell>
        <mxCell id="3IjrNCw-eFAvfJicf0EX-5" value="内联接口(业务应用)" style="text;html=1;resizable=0;points=[];autosize=1;align=center;verticalAlign=top;spacingTop=-4;fontSize=15;" parent="1" vertex="1">
          <mxGeometry x="1947.5" y="499" width="157" height="20" as="geometry"/>
        </mxCell>
        <mxCell id="3IjrNCw-eFAvfJicf0EX-6" value="内联接口" style="rounded=0;whiteSpace=wrap;html=1;fillColor=#d5e8d4;fontSize=15;strokeColor=#82b366;" parent="1" vertex="1">
          <mxGeometry x="1964" y="529" width="120" height="60" as="geometry"/>
        </mxCell>
        <mxCell id="3IjrNCw-eFAvfJicf0EX-7" value="内联接口" style="rounded=0;whiteSpace=wrap;html=1;fillColor=#d5e8d4;fontSize=15;strokeColor=#82b366;" parent="1" vertex="1">
          <mxGeometry x="1964" y="609" width="120" height="60" as="geometry"/>
        </mxCell>
      </root>
    </mxGraphModel>
  </diagram>
</mxfile>
